<?xml version="1.0" encoding="utf-8"?>
<!-- Generator: Adobe Illustrator 16.0.0, SVG Export Plug-In . SVG Version: 6.00 Build 0)  -->
<!DOCTYPE svg PUBLIC "-//W3C//DTD SVG 1.1//EN" "http://www.w3.org/Graphics/SVG/1.1/DTD/svg11.dtd">
<svg version="1.1" id="Layer_1" xmlns="http://www.w3.org/2000/svg" xmlns:xlink="http://www.w3.org/1999/xlink" x="0px" y="0px"
	 width="800px" height="845.856px" viewBox="0 0 800 845.856" enable-background="new 0 0 800 845.856" xml:space="preserve">
<g>
	<g>
		<defs>
			<rect id="SVGID_1_" width="800" height="641"/>
		</defs>
		<clipPath id="SVGID_2_">
			<use xlink:href="#SVGID_1_"  overflow="visible"/>
		</clipPath>
		<g clip-path="url(#SVGID_2_)">
			<g>
				<path d="M290.959,30.146c-0.929,4.011-1.778,7.677-2.687,11.601c5.812-0.928,11.46-1.828,17.733-2.829
					c2.365,27.172-0.08,53.176-10.274,79.166c67.208,13.231,134.407,11.91,202.711,4.915c-1.141-1.69-1.743-2.745-2.496-3.679
					c-14.769-18.31-22.082-39.577-24.882-62.635c-0.382-3.138-0.521-6.309-0.993-9.431c-0.517-3.413,1.048-4.326,4.177-4.444
					c11.969-0.452,23.511,1.579,34.77,5.506c0.745,0.261,1.497,0.501,2.512,0.839c-1.791-7.409-3.502-14.487-5.327-22.037
					c13.031-2.595,24.982-2.355,36.688,1.676c18.539,6.385,32.067,18.645,40.644,36.17c1.978,4.042,4.202,6.12,8.751,7.256
					c19,4.747,35.593,13.882,48.229,29.214c12.616,15.305,18.824,33.097,19.443,52.822c0.094,2.977,0.756,4.651,3.438,6.263
					c20.988,12.619,32.072,31.752,35.612,55.563c2.76,18.559,0.765,36.799-3.994,54.865c-0.652,2.479-0.283,5.577,0.576,8.056
					c5.288,15.264,9.446,30.734,11.629,46.808c2.257,16.624-0.765,31.975-8.166,46.866c-4.328,8.708-8.604,17.331-16.174,23.707
					c-2.959,2.491-2.886,4.568-1.346,8.063c7.137,16.194,3.84,31.633-4.88,46.153c-12.111,20.17-29.729,34.813-49.196,47.402
					c-3.027,1.957-4.51,3.785-4.655,7.74c-1.47,40.121-27.773,68.203-67.438,72.297c-5.122,0.529-10.311,0.451-15.42,1.055
					c-1.648,0.193-3.832,1.271-4.608,2.617c-14.368,24.902-37.333,30.902-63.69,28.686c-21.103-1.777-38.73-11.104-53.242-26.963
					c-6.771,4.846-14.348,7.412-22.813,6.666c-2.469-0.219-5.189-0.178-7.309-1.232c-4.563-2.273-7.992-1.117-12.295,1.248
					c-20.37,11.193-41.958,19.215-65.063,22.635c-23.063,3.412-38.407-4.568-50.031-26.719c-2.475-4.715-5.507-5.666-10.035-6.068
					c-15.496-1.379-30.36-5.215-44.689-11.432c-17.206-7.465-26.301-20.648-28.998-38.822c-0.926-6.238-0.451-13.553-3.661-18.332
					c-3.043-4.529-10.244-6.119-15.317-9.457c-21.912-14.416-37.451-33.49-41.5-60.092c-1.188-7.799-0.193-15.922-0.402-23.891
					c-0.042-1.58-0.558-3.63-1.631-4.631C99.024,398.711,91.797,380.123,89.1,359.48c-3.135-23.992,1.582-46.988,9.322-69.585
					c0.765-2.231,0.702-5.178-0.052-7.434c-9.711-29.077-12.309-58.133-0.39-87.28c6.026-14.735,16.004-26.312,28.484-35.98
					c1.522-1.179,2.831-3.543,2.978-5.455C132.29,116.52,153.165,92.805,186,78.12c5.583-2.497,11.614-3.979,17.367-6.123
					c1.338-0.498,3.185-1.595,3.445-2.727c2.804-12.219,11.296-19.902,21.303-25.852C247.347,31.984,268.622,29.323,290.959,30.146z
					 M555.002,346.334c-17.478,17.031-32.531,20.055-41.901,8.582c1.639,0.249,2.917,0.369,4.162,0.644
					c13.912,3.067,22.622-0.501,29.683-12.991c8.677-15.352,12.726-32.136,13.054-49.646c0.236-12.637-0.542-25.299-1.031-37.943
					c-1.285-33.259-2.65-66.514-4.002-99.77c-0.403-9.927-0.864-19.85-1.305-29.943c-7.091,2.685-13.739,5.628-20.643,7.738
					c-29.044,8.88-59.075,11.343-89.177,12.488c-38.792,1.478-77.604,1.578-116.203-3.605c-25.924-3.482-51.462-8.637-75.387-19.768
					c-5.375-2.5-10.529-5.473-16.173-8.432c-1.305,29.91-2.578,59.478-3.891,89.044c-0.946,21.293-2.269,42.575-2.811,63.878
					c-0.388,15.23-3.104,30.474,0.554,45.75c3.299,13.778,6.382,27.564,14.238,39.643c7.36,11.315,16.12,14.2,28.734,9.729
					c1.656-0.588,3.311-1.18,5.438-1.937c-6.766,11.835-22.034,11.965-38.046,0.623c0.523,1.76,0.888,3.175,1.361,4.553
					c4.792,13.979,9.359,28.041,14.455,41.909c12.927,35.179,27.103,69.796,48.327,101.001c4.014,5.9,8.654,11.377,13.005,17.049
					c-13.423-30.512-24.622-61.33-27.929-94.561c1.707,1.256,2.664,2.77,3.32,4.408c5.078,12.65,10.051,25.346,15.145,37.992
					c8.396,20.844,17.067,41.559,30.163,60.041c5.727,8.08,12.656,14.369,22.785,16.615c8.102,1.797,15.989,4.547,24.085,6.365
					c10.816,2.428,20.154-3.633,23.046-14.449c1.75-6.545,0.884-11.975-2.128-13.336c-3.625-1.639-9.395,0.762-13.418,5.699
					c-1.917,2.354-3.669,4.84-5.496,7.266c-0.541-0.271-1.082-0.547-1.623-0.82c1.384-3.723,2.286-7.723,4.25-11.107
					c4.035-6.957,12.126-10.48,18.605-8.768c6.114,1.617,10.525,7.932,9.71,16.715c-0.661,7.119-3.277,14.059-4.983,20.904
					c15.218-1.748,29.816-8.561,44.35-15.557c8.627-4.154,14.524-10.646,17.866-19.748c4.063-11.066,8.774-21.895,12.942-32.928
					c7.453-19.73,14.666-39.551,22.104-59.285c0.853-2.264,2.5-4.227,3.778-6.328c0.716,0.301,1.431,0.602,2.146,0.9
					c-1.946,29.764-11.544,57.623-22.456,85.225c9.346-10.777,18.646-21.656,24.375-34.842
					C535.899,434.325,548.326,391.737,555.002,346.334z M141.202,160.816c-17.208,10.107-29.476,23.836-36.493,42.078
					c-8.72,22.669-7.885,45.938-4.167,69.364c0.345,2.175,0.885,4.318,1.573,7.621c2.547-5.433,4.546-9.695,6.764-14.426
					c16.065,15.525,28.423,33.097,40.241,51.089c2.783-3.673,4.871-7.174,7.691-9.922c2.42-2.358,2.772-4.568,1.835-7.486
					c-0.505-1.574-0.825-3.22-1.09-4.855c-3.619-22.247-2.564-43.483,13.014-61.739c1.052-1.233,1.477-3.787,1.025-5.399
					C164.999,203.612,155.044,181.596,141.202,160.816z M644.399,310.853c10.777-20.826,19.436-42.761,41.344-55.332
					c1.793,3.732,3.282,6.83,5.002,10.41c0.451-1.077,0.839-1.624,0.901-2.205c1.973-18.468,2.294-36.902-3.035-54.911
					c-6.867-23.209-21.472-39.234-44.861-47.055c-0.626,0.881-1.16,1.506-1.556,2.208c-10.132,17.948-16.594,37.247-20.876,57.318
					c-0.27,1.261,0.183,3.072,0.978,4.104c15.629,20.266,18.358,42.818,12.229,67.044c-0.327,1.291-0.267,3.079,0.396,4.152
					C637.86,301.342,641.084,305.921,644.399,310.853z M623.318,496.877c13.254-11.395,26.491-22.168,36.393-36.055
					c5.821-8.166,11.125-17.074,14.646-26.41c4.869-12.909,2.007-25.195-7.637-35.587c-2.309-2.488-4.641-3.533-7.925-2.358
					c-4.841,1.731-9.892,2.969-14.567,5.059c-20.987,9.382-37.391,24.667-52.364,41.625c-4.602,5.211-9.737,10.445-12.571,16.613
					c-5.172,11.258-11.498,21.324-20.898,29.43c-1.357,1.17-2.354,2.756-3.519,4.15c2.588,0.309,4.482-0.143,6.336-0.719
					c16.751-5.205,33.755-8.852,51.424-8.631c8.435,0.104,8.428,0.027,9.796,8.57C622.635,493.825,622.943,495.065,623.318,496.877z
					 M124.397,388.895c20.698,9.716,39.183,21.93,57.484,35.344c-3.826-39.752-46.655-125.41-70.33-141.279
					c-22.161,41.147-19.114,108.464,5.702,127.849C119.582,403.666,121.923,396.484,124.397,388.895z M617.686,406.268
					c0.528-0.352,1.067-0.688,1.584-1.057c12.733-9.03,26.353-16.185,41.945-18.63c2.554-0.4,5.824,0.649,8.063,2.105
					c3.255,2.117,5.874,5.212,9.172,8.269c12.477-16.981,21.628-35.597,21.517-57.34c-0.108-21.385-7.06-41.419-14.578-61.184
					c-1.076-2.829-2.318-5.595-4.152-9.992C648.351,309.965,635.241,358.98,617.686,406.268z M181.646,498.965
					c1.926,11.824,3.85,22.547,5.384,33.324c1.987,13.965,10.041,23.164,22.206,29.313c2.671,1.352,5.328,2.818,8.146,3.773
					c12.635,4.287,25.327,8.408,38.953,12.906c-1.217-6.371-2.083-11.043-3.008-15.703c-0.737-3.713,0.107-6.293,4.107-7.697
					c13.764-4.828,27.414-9.986,41.194-14.768c4.265-1.479,8.808-2.156,14.764-3.566c-4.281-3.188-7.189-5.906-10.568-7.777
					c-30.302-16.783-63.054-25.406-97.345-28.639C198.09,499.438,190.643,499.387,181.646,498.965z M487.77,533.516
					c18.86,4.676,35.336,11.572,51.184,20.172c3.854,2.092,4.865,4.516,3.781,8.371c-1.243,4.42-2.477,8.842-3.737,13.346
					c56.76-4.77,79.524-42.646,73.082-82.955c-9.985,1.346-20.104,2.182-30,4.145c-30.53,6.063-59.006,18.07-87.063,31.127
					C492.6,528.844,490.717,531.114,487.77,533.516z M129.917,401.758c-6.986,20.605-7.55,40.206,1.236,59.481
					c8.88,19.48,23.992,33.209,42.03,45.221c0-4.887,0.02-8.715-0.007-12.541c-0.018-2.594,0.933-4.066,3.818-3.914
					c11.785,0.621,23.594,0.91,35.353,1.844c7.705,0.613,15.339,2.123,24.229,3.408
					C211.379,451.522,171.596,426.293,129.917,401.758z M623.77,183.497c4.446-9.576,8.898-19.011,13.193-28.516
					c1.287-2.848,3.215-3.509,5.983-2.681c4.221,1.264,8.443,2.522,12.78,3.817c-6.278-45.31-40.388-75.555-84.88-77.968
					c-0.169,0.283-0.496,0.573-0.483,0.848c0.622,14.436,1.174,28.875,2.063,43.294c0.096,1.558,1.954,3.242,3.359,4.439
					c4.919,4.192,10.393,7.804,14.938,12.353c11.349,11.356,16.955,25.536,18.6,40.94
					C614.41,181.247,619.158,182.389,623.77,183.497z M166.799,191.013c2.622-0.686,5.144-1.729,7.729-1.921
					c2.945-0.22,3.354-1.66,3.602-4.162c2.164-21.807,11.668-39.57,29.146-53.06c1.909-1.474,3.239-4.388,3.743-6.856
					c1.227-6.013,1.925-12.145,2.626-18.252c1.056-9.2,1.932-18.421,2.892-27.703c-35.484,0.424-84.341,45.219-82.028,74.843
					c1.682-0.87,3.373-1.571,4.877-2.559c3.271-2.146,5.553-1.94,7.567,1.876c2.71,5.137,6.218,9.855,8.893,15.008
					C159.729,175.706,163.173,183.413,166.799,191.013z M379.075,587.129c-4.755-6.793-8.6-12.494-12.689-18.014
					c-1.439-1.943-3.2-4.008-5.295-5.047c-13.059-6.479-27.508-10.021-39.447-18.955c-1.52-1.139-4.569-1.279-6.506-0.646
					c-16.385,5.363-32.664,11.051-49.005,16.547c-3.118,1.051-3.733,2.979-2.636,5.74c2.319,5.842,4.09,12.012,7.197,17.406
					c7.369,12.795,17.382,21.975,33.594,20.674c4.145-0.332,8.403-0.338,12.392-1.354
					C337.717,598.129,358.686,592.502,379.075,587.129z M421.054,582.038c19.982,15.396,42.457,23.504,68.67,19.746
					c22.255-3.189,35.62-16.115,42.605-36.773c0.799-2.361,0.966-3.848-1.631-5.248c-14.96-8.066-30.439-14.82-46.955-19
					c-1.246-0.314-3.167-0.264-4.015,0.482c-14.051,12.367-31.036,19.035-48.279,25.27c-1.242,0.449-2.51,1.541-3.197,2.68
					C425.788,573.274,423.567,577.502,421.054,582.038z M616.065,326.486c3.758-11.136,7.791-21.172,10.501-31.552
					c4.513-17.283,4.401-34.549-3.561-51.057c-5.579-11.567-13.848-20.755-24.812-27.604c-19.15,31.986-27.589,84.127-17.536,106.23
					c7.531-5.172,15.104-10.372,23.255-15.971C608.023,313.28,611.619,319.186,616.065,326.486z M191.661,305.33
					c6.645,5.473,12.363,10.183,18.131,14.934c12.247-30.249,7.978-69.487-16.264-94.111c-14.895,8.339-25.106,20.532-27.783,37.522
					c-1.481,9.397-1.348,19.243-0.528,28.766c1.224,14.214,5.688,27.755,10.988,40.961
					C181.303,324.143,186.258,315.144,191.661,305.33z M240.725,402.544c3.08-30.463-20.032-62.566-46.044-82.459
					c-25.912,39.68-21.983,79.42,15.016,100.898c0.485-7.038,0.97-14.076,1.525-22.145
					C221.471,400.127,230.959,401.318,240.725,402.544z M578.746,389.38c2.197,11.969,4.259,23.201,6.31,34.369
					c38.074-29.932,36.879-71.809,15.22-104.104c-26.184,18.726-44.993,41.817-47.042,75.705
					C561.438,393.431,569.316,391.586,578.746,389.38z M287.921,504.44c0.019-0.15,0.107-0.342,0.048-0.445
					c-15.702-27.498-27.476-56.697-37.605-86.615c-0.392-1.157-1.218-2.823-2.133-3.044c-9.259-2.233-18.579-4.215-27.832-6.256
					C210.967,446.971,247.574,498.217,287.921,504.44z M571.467,400.863c-1.364,0.062-2.558-0.075-3.649,0.196
					c-4.665,1.162-9.39,2.195-13.896,3.816c-1.609,0.579-3.429,2.489-3.863,4.132c-8.342,31.606-15.773,63.526-33.864,91.577
					C560.018,491.545,584.399,454.252,571.467,400.863z M479.95,52.238c0.395,3.296,0.661,6.237,1.109,9.15
					c3.213,20.851,10.179,40.144,23.486,56.847c1.767,2.218,3.316,3.01,6.287,2.256c7.59-1.926,7.642-1.723,7.644-9.362
					c0-1.664,0.219-3.363-0.046-4.984c-0.772-4.747,1.3-5.937,5.791-5.795c9.608,0.302,19.232,0.093,28.984,0.093
					C546.905,76.296,509.635,51.738,479.95,52.238z M217.832,136.391c-25.041,11.29-42.42,55.52-32.786,83.601
					c1.472-0.776,2.928-1.513,4.355-2.303c6.453-3.572,6.514-3.634,11.441,2.018c2.808,3.22,5.363,6.66,7.972,9.926
					c8.233-3.021,8.153-3.021,8.278-11.135c0.179-11.647,0.614-23.292,0.708-34.939
					C217.927,167.925,217.832,152.289,217.832,136.391z M603.464,207.929c5.415-28.788-11.083-65.309-31.836-72.431
					c0,24.978-0.021,50.242,0.06,75.507c0.005,1.367,0.502,3.102,1.414,4.031c3.207,3.27,6.696,6.263,10.241,9.51
					c3.717-7.386,7.12-14.149,10.718-21.301C597.604,205.01,600.507,206.455,603.464,207.929z M296.759,49.712
					c-23.275,4.784-38.025,19.522-49.948,39.897c6.605,0,12.267,0,18.14,0c0,5.809-0.114,10.796,0.081,15.771
					c0.048,1.227,0.821,3.161,1.734,3.502c6.896,2.573,13.91,4.829,20.746,7.137C295.202,101.302,298.998,65.181,296.759,49.712z
					 M515.225,34.479c0.699,5.064,1.17,9.857,2.119,14.555c0.314,1.559,1.532,3.466,2.888,4.203
					c17.43,9.486,29.959,23.379,38.136,41.387c0.573,1.263,2.439,1.938,4.211,3.265c0-10.4,0-19.453,0-28.777
					c5.747,0,11.316,0,16.885-0.002C565.146,47.143,539.09,32.084,515.225,34.479z M223.82,89.418c3.507,0,6.329-0.254,9.086,0.059
					c4.349,0.492,6.7-0.947,8.758-5.142c8.182-16.672,19.816-30.349,37.001-38.349c4.283-1.993,5.048-4.55,3.848-8.729
					c-26.785,4.423-53.401,8.624-72.617,32.935c6.173-0.968,10.945-1.716,16.246-2.547C225.348,75.095,224.63,81.824,223.82,89.418z
					 M376.696,568.762c4.754,8.105,11.701,12.748,21.167,13.295c10.441,0.605,18.359-3.861,23.915-11.631
					C406.873,569.877,391.947,569.327,376.696,568.762z"/>
				<path d="M308.326,669.106c-0.549,11.182-1.037,21.125-1.545,31.475c-2.784,0-5.481,0-8.819,0
					c0.409-7.768,0.793-15.508,1.232-23.242c0.283-4.979,0.792-9.951,0.919-14.934c0.076-2.986,1.209-4.014,4.198-4.082
					c8.993-0.205,9.045-0.332,11.459,8.164c1.845,6.486,3.526,13.021,5.453,20.176c2.672-8.691,5.087-16.686,7.597-24.648
					c1.124-3.566,5.097-5.016,11.267-3.389c1.317,0.346,2.622,3.342,2.746,5.197c0.807,12.105,1.287,24.236,1.893,36.76
					c-2.974,0-5.981,0-10.025,0c0-9.811,0-19.496,0-29.182c-0.442-0.025-0.885-0.053-1.328-0.076
					c-2.68,8.479-5.536,16.91-7.944,25.467c-0.837,2.977-2.375,3.348-4.979,3.428c-2.83,0.09-4.104-0.834-4.798-3.635
					C313.467,687.786,311.002,679.055,308.326,669.106z"/>
				<path d="M221.282,701.969c0-15.176,0-28.771,0-42.809c7.589,0,15.086-0.809,22.331,0.201
					c9.426,1.311,15.191,9.422,15.328,19.391c0.144,10.434-5.444,19.035-14.929,21.006
					C236.798,701.256,229.272,701.25,221.282,701.969z M230.64,666.237c0,4.689,0,9.127,0,13.564c0,4.588,0,9.176,0,13.908
					c6.567,0.781,12.054-0.041,15.468-5.447c3.312-5.242,3.507-11.197,0.609-16.592C243.478,665.647,237.54,665.342,230.64,666.237z
					"/>
				<path d="M414.098,676.856c3.369-4.834,6.613-8.324,8.491-12.439c3.312-7.254,8.979-6.301,15.82-5.717
					c-4.181,5.426-7.776,10.33-11.645,15.01c-1.797,2.174-1.771,3.797-0.273,6.145c4.267,6.693,8.25,13.564,12.421,20.494
					c-10.112,1.768-10.106,1.764-14.809-6.381c-2.064-3.578-4.162-7.137-6.325-10.844c-6.576,4.803-2.276,11.74-4.21,17.572
					c-2.772,0-5.659,0-9.063,0c0-13.322-0.055-26.447,0.118-39.568c0.012-0.916,1.6-2.379,2.657-2.596
					c2.037-0.416,4.22-0.121,6.816-0.121C414.098,664.569,414.098,670.108,414.098,676.856z"/>
				<path d="M173.397,659.038c-3.657,4.758-6.681,9.373-10.406,13.326c-3.038,3.227-2.611,5.604-0.381,8.957
					c4.095,6.162,7.723,12.635,11.966,19.676c-2.382,0-3.853-0.172-5.27,0.031c-4.3,0.615-7.041-0.744-8.906-5
					c-1.969-4.496-4.879-8.58-7.402-12.887c-6.53,4.834-2.397,11.785-4.308,17.588c-2.768,0-5.496,0-8.506,0
					c0-13.994,0-27.738,0-41.914c2.781,0,5.491,0,8.73,0c0,5.555,0,11.115,0,16.678c0.364,0.143,0.728,0.283,1.091,0.426
					c2.561-3.697,5.651-7.141,7.565-11.146C160.858,657.899,166.18,657.53,173.397,659.038z"/>
				<path d="M480.011,700.842c-3.908,0-7.036,0-10.206,0c-1.38-3.625-1.778-8.398-4.31-10.236
					c-2.386-1.732-7.019-0.371-11.177-0.371c-0.543,1.615-1.179,3.436-1.765,5.27c-0.55,1.725-1.047,3.463-1.603,5.314
					c-3.156,0-6.123,0-9.771,0c1.303-4.238,2.535-8.242,3.763-12.25c2.667-8.713,5.478-17.389,7.916-26.164
					c0.802-2.889,1.898-4.152,5.036-4.049c10.806,0.359,8.232-1.469,11.341,8.287C472.804,677.842,476.303,689.065,480.011,700.842z
					 M460.508,667.928c-0.35,0.025-0.701,0.053-1.051,0.076c-1.214,4.85-2.428,9.699-3.703,14.791c3.303,0,5.905,0,8.972,0
					C463.259,677.624,461.884,672.776,460.508,667.928z"/>
				<path d="M120.841,658.874c4.306,13.75,8.657,27.645,13.115,41.883c-3.631,0-6.878,0-9.674,0
					c-3.947-3.01-0.298-9.969-8.077-11.076c-9.783-1.391-9.374,5.65-11.182,11.156c-3.325,0-6.294,0-9.873,0
					c3.3-10.822,6.53-21.363,9.726-31.912C108.352,657.45,108.338,657.446,120.841,658.874z M109.639,682.819
					c3.263,0,5.88,0,9.035,0c-1.438-5.125-2.789-9.934-4.139-14.74c-0.33,0.006-0.66,0.01-0.99,0.016
					C112.301,672.786,111.056,677.477,109.639,682.819z"/>
				<path d="M215.207,700.778c-1.669,0.084-2.84,0.02-3.962,0.225c-5.018,0.906-7.808-0.957-8.322-6.193
					c-0.359-3.65-2.243-5.506-6.249-4.891c-2.261,0.346-4.62,0.063-7.006,0.063c-1.333,3.754-1.809,7.967-4.122,10.512
					c-1.34,1.477-5.633,0.27-9.152,0.27c4.156-13.561,8.174-26.854,12.399-40.084c0.319-1,2.052-2.012,3.242-2.172
					c2.448-0.33,4.995-0.273,7.458,0.006c1.073,0.121,2.674,0.982,2.958,1.859C206.781,673.717,210.932,687.122,215.207,700.778z
					 M199.968,682.784c-1.469-5.256-2.866-10.256-4.624-16.547c-1.68,6.213-3.033,11.221-4.472,16.547
					C194.062,682.784,196.826,682.784,199.968,682.784z"/>
				<path d="M569.519,658.768c8.459,0,16.842,0,25.452,0c0,2.527,0,4.803,0,7.709c-5.261,0-10.324,0-15.705,0
					c0,3.045,0,5.463,0,8.494c4.841,0,9.725,0,14.992,0c0,2.836,0,5.076,0,7.832c-4.832,0-9.723,0-14.966,0
					c0,3.533,0,6.576,0,10.119c5.472,0,10.885,0,16.599,0c0,2.859,0,5.229,0,7.834c-8.824,0-17.417,0-26.372,0
					C569.519,686.858,569.519,672.997,569.519,658.768z"/>
				<path d="M265.389,658.721c8.513,0,16.908,0,25.481,0c0,2.592,0,4.889,0,7.748c-5.24,0-10.323,0-15.828,0
					c0,2.953,0,5.352,0,8.412c4.737,0,9.617,0,14.814,0c0,2.904,0,5.158,0,7.986c-4.767,0-9.669,0-14.907,0c0,3.475,0,6.393,0,9.945
					c5.487,0,11.028,0,16.825,0c0,2.883,0,5.148,0,7.799c-8.62,0-17.335,0-26.386,0C265.389,686.78,265.389,672.909,265.389,658.721
					z"/>
				<path d="M667.815,658.85c0,2.633,0,4.912,0,7.736c-5.292,0-10.378,0-15.813,0c0,2.941,0,5.354,0,8.418c4.854,0,9.751,0,14.92,0
					c0,2.887,0,5.139,0,7.957c-4.972,0-9.878,0-15.02,0c0,3.5,0,6.441,0,9.822c5.507,0,10.935,0,16.75,0c0,2.803,0,5.182,0,7.891
					c-8.613,0-17.324,0-26.317,0c0-13.889,0-27.633,0-41.824C650.69,658.85,659.048,658.85,667.815,658.85z"/>
				<path d="M599.979,700.793c3.646-6.412,6.878-12.363,10.393-18.143c1.387-2.281,1.4-3.986,0.004-6.289
					c-3.337-5.5-6.345-11.203-10.151-18.014c4.827,0.887,9.29-2.377,12.247,2.598c2.172,3.652,3.774,7.645,5.851,11.939
					c1.371-3.008,2.453-5.398,3.552-7.783c3.528-7.656,3.88-7.818,13.565-5.906c-3.353,5.861-6.771,11.455-9.731,17.281
					c-0.775,1.527-0.797,4.133-0.009,5.639c3.215,6.141,6.879,12.049,11.112,19.303c-5.019-1.598-9.791,2.277-12.744-3.189
					c-2.041-3.777-3.905-7.65-6.239-12.25c-1.679,3.525-3.46,6.268-4.31,9.271c-1.39,4.924-4.311,6.623-9.146,5.768
					C603.14,700.799,601.857,700.879,599.979,700.793z"/>
				<path d="M541.986,686.559c0,4.711,0,9.318,0,14.174c-3.127,0-5.891,0-9.077,0c0-13.703,0-27.4,0-41.768
					c6.439,0,12.878-0.488,19.208,0.135c6.598,0.648,10.58,5.463,10.914,11.625c0.365,6.758-3.187,12.242-9.592,14.014
					C549.967,685.698,546.289,685.903,541.986,686.559z M542.287,665.991c0,4.254,0,8.02,0,11.975
					c3.95,0.717,7.773,0.955,9.912-2.734c0.986-1.703,1.189-4.77,0.307-6.467C550.462,664.84,546.46,665.491,542.287,665.991z"/>
				<path d="M498.635,692.012c4.633,0.418,8.877,1.125,13.098,1.004c1.473-0.041,3.825-1.959,4.066-3.322
					c0.248-1.398-1.213-3.77-2.602-4.65c-2.77-1.758-6.077-2.637-9.022-4.152c-4.489-2.307-7.371-5.996-6.872-11.186
					c0.506-5.258,3.792-8.801,8.774-10.479c5.892-1.986,11.767-1.564,18.061,0.807c-0.563,2.363-1.11,4.664-1.651,6.934
					c-3.612-0.367-6.9-1.119-10.107-0.861c-1.795,0.145-3.456,1.965-5.177,3.027c1.155,1.605,1.988,3.723,3.539,4.703
					c2.63,1.666,5.793,2.461,8.588,3.902c4.526,2.332,7.059,6.072,6.685,11.297c-0.38,5.309-3.026,9.41-8.207,10.756
					c-4.08,1.061-8.506,1.506-12.709,1.217C496.515,700.417,496.419,699.969,498.635,692.012z"/>
				<path d="M396.103,660.385c-0.739,2.406-1.407,4.582-2.036,6.627c-3.449-0.393-6.582-1.225-9.601-0.922
					c-1.901,0.193-3.633,2.086-5.439,3.217c1.197,1.576,2.096,3.623,3.663,4.623c2.481,1.582,5.479,2.326,8.136,3.67
					c4.711,2.379,7.424,6.275,6.995,11.611c-0.42,5.23-3.37,8.934-8.374,10.766c-6,2.197-12.069,1.98-18.05,0.008
					c-3.147-1.039-3.094-1.295-0.905-8.008c4.277,0.426,8.499,1.219,12.688,1.074c1.636-0.055,4.277-2.043,4.497-3.457
					c0.224-1.432-1.639-3.781-3.196-4.768c-2.766-1.754-6.112-2.564-8.996-4.164c-4.195-2.328-6.832-5.869-6.363-10.941
					c0.453-4.9,3.18-8.199,7.712-10.098C382.414,657.288,389.41,657.456,396.103,660.385z"/>
				<path d="M491.316,770.719c0.651-10.018,1.285-19.742,1.915-29.4c7.761-2.191,8.888-1.605,10.994,5.66
					c1.172,4.037,2.303,8.088,3.812,13.4c1.597-5.262,2.799-9.299,4.05-13.322c2.308-7.422,2.319-7.418,11.048-6.045
					c0.548,9.721,1.104,19.572,1.675,29.709c-2.222,0-4.146,0-6.521,0c-0.367-6.559-0.735-13.127-1.104-19.695
					c-0.277-0.051-0.557-0.1-0.835-0.148c-1.648,5.271-3.093,10.623-5.068,15.771c-0.607,1.584-2.665,2.611-4.059,3.895
					c-1.155-1.314-2.859-2.449-3.366-3.979c-1.656-4.992-2.875-10.131-5.142-15.279c-0.35,6.414-0.701,12.828-1.062,19.436
					C495.468,770.719,493.564,770.719,491.316,770.719z"/>
				<path d="M684.242,666.577c-4.053,0-7.464,0-11.101,0c0-2.865,0-5.146,0-8.109c10.241,0,20.341-0.197,30.405,0.303
					c1.033,0.051,1.859,4.283,3.143,7.473c-4.994,0.234-8.558,0.402-12.583,0.59c0,11.301,0,22.383,0,33.811
					c-3.377,0-6.288,0-9.864,0C684.242,689.569,684.242,678.354,684.242,666.577z"/>
				<path d="M436.822,770.422c0-9.52,0-19.107,0-28.705c7.761-3.111,18.911-1.547,23.288,3.279
					c3.964,4.373,4.568,13.004,1.312,18.74C457.767,770.174,449.244,772.543,436.822,770.422z M443.213,765.532
					c8.328,0.971,12.686-2.396,12.924-9.523c0.231-6.896-3.213-10.691-9.655-10.229c-1.144,0.082-3.076,1.58-3.122,2.5
					C443.07,754.042,443.213,759.825,443.213,765.532z"/>
				<path d="M210.223,770.374c0-9.639,0-19.338,0-29.322c8.671-1.35,17.188-2.439,23.745,4.809
					c3.997,4.42,3.865,12.709,0.509,18.322C230.873,770.213,222.084,772.508,210.223,770.374z M216.995,745.959
					c0,6.859,0,13.273,0,19.793c4.843,0.627,8.767-0.383,11.043-4.484c2.125-3.83,2.24-8.043-0.146-11.857
					C225.41,745.446,221.462,745.26,216.995,745.959z"/>
				<path d="M280.261,770.93c0-10.213,0-19.801,0-30.348c4.507,0,9.021-0.645,13.217,0.229c2.792,0.582,6.326,2.844,7.324,5.262
					c0.919,2.229-1.103,5.674-1.992,9.23c2.409,1.332,4.49,4.367,3.335,8.883c-1.18,4.613-4.907,6.195-8.954,6.645
					C289.11,771.282,284.94,770.93,280.261,770.93z M287.361,757.6c0,2.854,0,5.508,0,8.453c3.478-0.07,7.464,0.625,7.637-4.119
					C295.181,756.924,290.945,757.907,287.361,757.6z M287.189,753.36c2.875-1.266,5.082-2.039,7.025-3.24
					c0.443-0.273,0.337-2.729-0.137-2.971c-1.995-1.027-4.225-1.6-6.888-2.516C287.189,747.764,287.189,749.711,287.189,753.36z"/>
				<path d="M305.903,756.176c-0.041-9.502,5.898-16.123,14.504-16.172c8.895-0.051,14.656,6.205,14.633,15.887
					c-0.022,9.395-5.976,15.605-15.013,15.664C311.787,771.61,305.942,765.245,305.903,756.176z M328.167,756.188
					c-0.449-2.033-0.682-3.518-1.11-4.941c-0.988-3.285-3.019-6.248-6.592-5.416c-2.429,0.566-5.702,2.939-6.216,5.076
					c-0.863,3.588-0.684,7.953,0.609,11.41c1.882,5.033,8.286,5.088,11.036,0.395C327.109,760.637,327.527,758.098,328.167,756.188z
					"/>
				<path d="M575.232,770.37c-5.896,1.973-8.15-0.373-8.854-5.156c-0.555-3.766-1.85-6.879-7.15-5.959c0,3.615,0,7.336,0,11.398
					c-2.514,0-4.54,0-6.822,0c0-9.752,0-19.334,0-30.402c5.568,0.336,11.239-0.137,16.45,1.193
					c6.731,1.717,6.913,9.836,1.219,14.482C571.825,760.829,573.504,765.532,575.232,770.37z M559.375,754.891
					c2.802-1.201,5.287-1.83,7.132-3.277c0.717-0.563,0.593-3.758-0.207-4.369c-1.73-1.324-4.146-1.752-6.925-2.787
					C559.375,748.293,559.375,750.987,559.375,754.891z"/>
				<path d="M402.972,770.459c-5.688,1.832-8.897-0.203-10.899-5.094c-0.989-2.416-2.59-4.582-3.915-6.859
					c-0.556-0.021-1.11-0.045-1.666-0.066c-0.626,3.918-1.253,7.834-1.947,12.178c-0.504,0.076-1.428,0.289-2.359,0.332
					c-0.982,0.045-1.974-0.074-3.708-0.156c0-9.346-0.188-18.609,0.234-27.846c0.054-1.178,3.297-2.209,6.219-4.027
					c0,5.516,0,9.246,0,13.814c6.202-4.104,6.48-15.166,17.302-11.656c-2.297,3.064-4.283,6.234-6.794,8.914
					c-2.392,2.557-2.295,4.549-0.391,7.332C397.919,761.522,400.333,766.03,402.972,770.459z"/>
				<path d="M364.357,763.256c-8.122-0.6-8.122-0.6-10.745,7.43c-1.994,0-4.09,0-6.884,0c2.886-9.658,5.527-19.168,8.76-28.471
					c0.398-1.146,3.932-1.563,6.034-1.631c1.265-0.041,3.39,0.971,3.734,1.984c3.146,9.232,5.985,18.568,8.935,27.938
					C367.063,771.473,367.063,771.473,364.357,763.256z M360.63,748.202c-0.346-0.02-0.691-0.037-1.038-0.057
					c-0.854,3.131-1.711,6.262-2.576,9.43c2.362,0,4.178,0,6.335,0C362.347,754.116,361.488,751.159,360.63,748.202z"/>
				<path d="M275.723,770.768c-2.567,0-4.689,0-7.196,0c-0.862-2.359-1.803-4.936-2.784-7.619c-2.74,0-5.367,0-7.934,0
					c-3.045,8.145-3.045,8.145-9.561,7.479c2.87-9.371,5.589-18.717,8.73-27.918c0.4-1.17,3.01-2.199,4.592-2.193
					c1.804,0.008,4.798,0.826,5.215,2.016C270.012,751.733,272.739,761.112,275.723,770.768z M264.837,757.782
					c-1.019-3.557-1.969-6.873-3.268-11.41c-1.141,4.584-1.948,7.828-2.839,11.41C260.883,757.782,262.476,757.782,264.837,757.782z
					"/>
				<path d="M432.26,770.819c-2.807,0-4.934,0-7.285,0c-0.864-2.521-1.712-4.986-2.529-7.369c-8.013-1.074-8.013-1.074-10.995,7.309
					c-2.016,0-4.117,0-6.779,0c2.912-9.674,5.538-19.063,8.743-28.252c0.427-1.225,3.803-1.965,5.791-1.922
					c1.516,0.035,3.905,1.354,4.346,2.637C426.618,752.135,429.277,761.188,432.26,770.819z M418.669,748.217
					c-0.366-0.02-0.731-0.043-1.099-0.063c-0.85,3.121-1.699,6.244-2.619,9.625c2.356,0,4.103,0,6.347,0
					C420.362,754.372,419.516,751.295,418.669,748.217z"/>
				<path d="M361.783,658.79c0,14.223,0,27.838,0,41.822c-3.059,0-5.972,0-9.257,0c0-13.715,0-27.582,0-41.822
					C355.539,658.79,358.426,658.79,361.783,658.79z"/>
				<path d="M474.938,752.372c3.604,0,7.015,0,10.678,0c0.152,1.982,0.264,3.412,0.428,5.527c-3.805,0-7.344,0-11.112,0
					c0,2.607,0,4.551,0,7.109c3.909,0,7.8,0,11.89,0c0,2.209,0,3.807,0,5.701c-6.171,0-12.234,0-18.606,0c0-9.879,0-19.609,0-29.811
					c5.847,0,11.681,0,17.744,0c0,1.629,0,3.092,0,5.125c-3.569,0-7.141,0-11.02,0C474.938,748.329,474.938,750.063,474.938,752.372
					z"/>
				<path d="M165.739,741.131c5.366-1.795,8.028-0.545,9.028,4.736c1.043,5.512,2.923,10.865,4.755,17.428
					c1.911-6.545,3.742-12.027,5.074-17.629c1.105-4.646,3.339-6.547,8.672-4.463c-3.149,9.465-6.161,19.027-9.689,28.395
					c-0.391,1.039-3.74,1.283-5.714,1.275c-1.081-0.006-2.8-1.09-3.133-2.064C171.635,759.745,168.776,750.596,165.739,741.131z"/>
				<path d="M591.241,740.743c5.946,0,11.694,0,17.717,0c0.083,1.688,0.155,3.145,0.251,5.104c-3.769,0.184-7.325,0.355-11.21,0.545
					c0,2.178,0,4.098,0,6.496c3.201,0,6.458,0,10.18,0c0.174,2.002,0.313,3.572,0.496,5.693c-3.736,0.195-7.118,0.373-11.092,0.582
					c0,3.986,0,7.723,0,11.639c-2.408,0-4.201,0-6.342,0C591.241,760.819,591.241,750.932,591.241,740.743z"/>
				<path d="M536.644,770.737c-2.128,0-4.047,0-6.228,0c0-9.996,0-19.73,0-29.984c1.98-0.102,3.894-0.197,6.228-0.314
					C536.644,750.584,536.644,760.44,536.644,770.737z"/>
				<path d="M196.915,741.038c4.93-1.434,7.056-0.531,6.829,4.629c-0.363,8.258-0.097,16.541-0.097,25.066c-2.338,0-4.117,0-6.731,0
					c0-4.771,0-9.674,0-14.576C196.915,751.184,196.915,746.211,196.915,741.038z"/>
				<path d="M261.664,741.313c-2.208-3.129-4.685-5.176-4.352-6.533c0.419-1.713,3.173-3.994,4.847-3.938
					c1.664,0.059,4.304,2.574,4.523,4.271C266.868,736.547,264.202,738.348,261.664,741.313z"/>
				<path d="M587.947,767.579c-2.612,1.885-4.306,3.961-5.368,3.678c-1.678-0.447-2.935-2.479-4.368-3.84
					c1.373-1.424,2.604-3.742,4.165-3.992C583.645,763.221,585.311,765.497,587.947,767.579z"/>
				<path d="M614.069,761.338c1.8,3,3.765,4.824,3.508,6.248c-0.26,1.441-2.591,3.094-4.269,3.445
					c-0.806,0.168-3.133-2.484-3.08-3.789C610.296,765.649,612.139,764.129,614.069,761.338z"/>
				<path d="M479.381,386.133c7.77,0.441,13.35,5.675,13.458,14.044c0.072,5.573-0.593,11.357-2.115,16.71
					c-3.125,10.993-6.342,22.057-10.788,32.555c-9.578,22.619-26.798,32.664-51.691,25.846c-6.075-1.664-11.984-4.178-18.151-5.201
					c-10.018-1.658-19.849,0.184-29.393,3.566c-11.938,4.23-24.016,4.736-36.265,1.344c-5.092-1.412-8.969-4.223-11.432-8.912
					c-7.727-14.707-15.589-29.346-23.103-44.163c-4.021-7.93-5.323-16.438-2.948-25.202c2.476-9.136,7.481-11.764,17.12-8.884
					c-1.233,1.816-2.489,3.505-3.576,5.296c-3.881,6.396-2.313,11.525,4.781,13.597c4.727,1.381,9.838,2.365,14.711,2.134
					c12.11-0.576,24.246-1.486,36.257-3.111c19.797-2.68,39.425-2.16,59.148,0.695c11.83,1.712,23.773,3.044,35.655-0.392
					c6.271-1.813,9.214-6.562,10.615-12.118C482.227,391.705,480.244,388.834,479.381,386.133z"/>
				<path d="M513.085,225.946c-2.879,2.257-5.462,5.149-8.691,6.654c-10.804,5.038-21.838,9.581-32.786,14.307
					c-0.897,0.388-1.815,0.73-3.772,1.514c8.279,2.71,15.664,5.065,23.005,7.548c7.538,2.549,15.101,5.048,22.529,7.889
					c7.281,2.785,14.993,4.855,20.967,10.195c-0.086,0.606-0.172,1.214-0.258,1.82c-2.963,0-5.985,0.386-8.88-0.059
					c-30.732-4.717-60.313-13.146-87.682-28.245c-4.341-2.396-8.01-6.005-11.989-9.054c0.288-0.636,0.575-1.271,0.863-1.906
					c2.124,0.284,4.325,0.306,6.356,0.903c6.518,1.915,13.015,3.922,19.433,6.146c2.663,0.923,4.42,0.42,6.695-1.284
					c13.693-10.259,29.207-16.271,46.094-18.691c2.417-0.347,4.97,0.243,7.458,0.399
					C512.646,224.703,512.866,225.325,513.085,225.946z"/>
				<path d="M387.422,238.322c-4.725,3.133-9.147,6.905-14.225,9.289c-22.74,10.68-46.92,16.543-71.641,20.36
					c-5.092,0.786-10.225,1.408-15.363,1.76c-3.029,0.207-6.104-0.268-9.159-0.436c-0.18-0.621-0.359-1.242-0.538-1.863
					c2.122-1.212,4.11-2.857,6.389-3.567c15.209-4.737,30.467-9.32,45.74-13.852c5.069-1.504,10.228-2.707,15.93-4.201
					c-15.542-7.543-31.792-12.692-43.745-24.925c0.209-0.752,0.419-1.504,0.628-2.256c3.293,0.172,6.722-0.19,9.856,0.607
					c15.799,4.021,30.402,10.559,43.073,21.104c1.445,1.203,4.123,1.854,5.972,1.482c7.313-1.471,14.513-3.482,21.774-5.214
					c1.372-0.327,2.831-0.289,4.25-0.42C386.715,236.901,387.069,237.612,387.422,238.322z"/>
				<path d="M264.106,205.566c2.117-12.629,9.957-22.022,19.263-30.2c15.993-14.054,34.367-18.829,54.64-10.898
					c13.071,5.113,23.632,13.604,29.521,26.637c-0.314,0.489-0.628,0.979-0.942,1.47c-1.757-0.573-3.642-0.909-5.247-1.768
					c-3.664-1.957-7.188-4.175-10.772-6.277c-23.861-13.999-42.816-12.634-64.373,4.841c-5.167,4.189-9.954,8.846-14.973,13.222
					c-1.716,1.496-3.607,2.793-5.417,4.18C265.239,206.37,264.673,205.969,264.106,205.566z"/>
				<path d="M431.268,194.651c2.684-16.398,31.851-31.401,54.068-28.627c21.939,2.738,49.03,29.971,47.21,48.799
					c-2.196-1.599-4.031-2.703-5.593-4.109c-8.139-7.33-15.742-15.348-24.41-21.977c-13.966-10.683-29.667-11.704-45.771-5.164
					c-6.601,2.681-12.854,6.207-19.33,9.208C435.624,193.624,433.575,193.97,431.268,194.651z"/>
				<path d="M371.371,341.914c-2.462,5.788-13.533,10.112-20.654,8.793c-8.168-1.514-11.027-6.262-11.181-18.869
					c-10.035,5.757-19.463,12.584-31.582,13.715c25.6-21.066,51.2-42.132,76.799-63.198c0.307,0.078,0.613,0.155,0.92,0.232
					c-1.21,2.608-2.14,5.397-3.678,7.797c-8.358,13.042-19.377,23.603-31.445,33.143c-4.164,3.292-5.686,13.857-1.851,17.362
					c1.799,1.645,5.095,2.251,7.718,2.266C361.185,343.18,365.955,342.411,371.371,341.914z"/>
				<path d="M421.921,282.509c16.642,27.684,45.007,41.03,70.632,57.728c-0.273,0.661-0.548,1.323-0.82,1.985
					c-3.649-0.762-7.366-1.298-10.931-2.35c-3.632-1.071-7.116-2.649-11.046-4.152c-2.46,7.981-6.947,13.433-16.082,12.078
					c-5.697-0.846-9.091-4.003-9.506-8.674c7.226,0.442,15.688,4.427,19.76-6.045c-19.479-11.878-38.881-24.193-44.118-48.695
					C420.515,283.759,421.218,283.134,421.921,282.509z"/>
				<path d="M392.304,353.602c5.798,0.552,11.626,1.613,17.435,1.516c5.621-0.096,11.221-1.383,17.308-2.213
					c-2.575,7.252-13.207,11.397-23.496,10.081C396.807,362.122,392.723,358.657,392.304,353.602z"/>
				<path d="M393.022,330.271c11.863,2.509,22.823,7.776,34.563,2.148c-1.296,6.896-7.483,9.288-20.229,8.061
					c0.996,2.761,1.945,5.392,2.896,8.021c-0.41,0.246-0.82,0.491-1.229,0.736C402.379,344.4,398.237,337.354,393.022,330.271z"/>
			</g>
		</g>
	</g>
</g>
<g enable-background="new    ">
	<path d="M107.042,688.591l-3.072,11.071H93.859l13.183-43.133h12.799l13.375,43.133h-10.496l-3.328-11.071H107.042z
		 M117.986,681.296l-2.688-9.151c-0.768-2.561-1.536-5.76-2.176-8.32h-0.128c-0.64,2.561-1.28,5.824-1.984,8.32l-2.56,9.151H117.986
		z"/>
	<path d="M138.979,656.53h9.664v19.07h0.192c0.96-1.664,1.984-3.199,2.944-4.735l9.791-14.335h11.967l-14.271,18.366l15.039,24.767
		h-11.391l-10.56-18.623l-3.711,4.544v14.079h-9.664V656.53z"/>
	<path d="M189.153,688.591l-3.072,11.071H175.97l13.183-43.133h12.799l13.375,43.133h-10.496l-3.328-11.071H189.153z
		 M200.096,681.296l-2.688-9.151c-0.768-2.561-1.536-5.76-2.176-8.32h-0.128c-0.64,2.561-1.28,5.824-1.984,8.32l-2.56,9.151H200.096
		z"/>
	<path d="M221.089,657.106c3.584-0.576,8.255-0.896,13.183-0.896c8.191,0,13.503,1.473,17.663,4.608
		c4.48,3.327,7.295,8.639,7.295,16.254c0,8.256-3.008,13.951-7.167,17.472c-4.543,3.775-11.455,5.567-19.902,5.567
		c-5.056,0-8.64-0.32-11.071-0.641V657.106z M230.88,692.303c0.832,0.191,2.176,0.191,3.392,0.191
		c8.832,0.064,14.591-4.799,14.591-15.103c0.064-8.959-5.184-13.695-13.567-13.695c-2.176,0-3.584,0.192-4.416,0.385V692.303z"/>
	<path d="M291.295,681.424h-15.871v10.239h17.727v7.999h-27.518V656.53h26.622v7.999h-16.831v8.96h15.871V681.424z"/>
	<path d="M336.286,683.152c-0.192-5.184-0.384-11.455-0.384-17.727h-0.192c-1.344,5.503-3.136,11.646-4.8,16.702l-5.248,16.831
		h-7.615l-4.608-16.702c-1.408-5.056-2.879-11.199-3.903-16.831h-0.128c-0.256,5.823-0.448,12.479-0.768,17.854l-0.768,16.383
		h-9.023l2.752-43.133h12.991l4.224,14.398c1.344,4.992,2.688,10.368,3.647,15.424h0.192c1.216-4.992,2.688-10.688,4.096-15.487
		l4.608-14.335h12.735l2.368,43.133h-9.536L336.286,683.152z"/>
	<path d="M363.744,656.53v43.133h-9.792V656.53H363.744z"/>
	<path d="M372.511,689.616c2.624,1.344,6.656,2.688,10.815,2.688c4.479,0,6.848-1.855,6.848-4.672c0-2.688-2.048-4.224-7.231-6.079
		c-7.167-2.496-11.839-6.464-11.839-12.735c0-7.359,6.144-12.991,16.319-12.991c4.864,0,8.447,1.024,11.007,2.176l-2.176,7.872
		c-1.728-0.832-4.8-2.049-9.023-2.049s-6.271,1.92-6.271,4.16c0,2.752,2.432,3.968,7.999,6.08
		c7.616,2.815,11.199,6.783,11.199,12.862c0,7.231-5.567,13.375-17.407,13.375c-4.927,0-9.791-1.279-12.223-2.623L372.511,689.616z"
		/>
	<path d="M406.751,656.53h9.663v19.07h0.192c0.96-1.664,1.983-3.199,2.943-4.735l9.792-14.335h11.967l-14.271,18.366l15.039,24.767
		h-11.391l-10.56-18.623l-3.712,4.544v14.079h-9.663V656.53z"/>
	<path d="M456.925,688.591l-3.071,11.071h-10.111l13.183-43.133h12.8l13.375,43.133h-10.495l-3.328-11.071H456.925z
		 M467.868,681.296l-2.688-9.151c-0.768-2.561-1.536-5.76-2.176-8.32h-0.128c-0.64,2.561-1.28,5.824-1.984,8.32l-2.56,9.151H467.868
		z"/>
	<path d="M502.109,689.616c2.623,1.344,6.655,2.688,10.814,2.688c4.48,0,6.848-1.855,6.848-4.672c0-2.688-2.048-4.224-7.231-6.079
		c-7.167-2.496-11.839-6.464-11.839-12.735c0-7.359,6.144-12.991,16.318-12.991c4.864,0,8.448,1.024,11.008,2.176l-2.176,7.872
		c-1.729-0.832-4.8-2.049-9.023-2.049s-6.271,1.92-6.271,4.16c0,2.752,2.432,3.968,7.999,6.08
		c7.615,2.815,11.199,6.783,11.199,12.862c0,7.231-5.567,13.375-17.406,13.375c-4.928,0-9.792-1.279-12.224-2.623L502.109,689.616z"
		/>
	<path d="M536.349,657.106c3.008-0.513,7.231-0.896,13.183-0.896c6.016,0,10.304,1.152,13.184,3.456
		c2.752,2.176,4.607,5.76,4.607,9.983s-1.408,7.808-3.968,10.239c-3.327,3.136-8.255,4.544-14.015,4.544
		c-1.28,0-2.432-0.064-3.328-0.192v15.423h-9.663V657.106z M546.012,676.688c0.832,0.192,1.856,0.256,3.264,0.256
		c5.184,0,8.384-2.623,8.384-7.039c0-3.968-2.752-6.336-7.615-6.336c-1.984,0-3.328,0.192-4.032,0.385V676.688z"/>
	<path d="M599.194,681.424h-15.871v10.239h17.728v7.999h-27.519V656.53h26.622v7.999h-16.831v8.96h15.871V681.424z"/>
	<path d="M630.427,699.663l-3.904-7.808c-1.6-3.008-2.624-5.247-3.84-7.743h-0.128c-0.896,2.496-1.983,4.735-3.327,7.743
		l-3.584,7.808h-11.136l12.479-21.822l-12.031-21.311h11.199l3.776,7.871c1.279,2.624,2.239,4.736,3.264,7.168h0.128
		c1.023-2.752,1.855-4.672,2.943-7.168l3.647-7.871h11.136l-12.159,21.055l12.799,22.078H630.427z"/>
	<path d="M672.602,681.424H656.73v10.239h17.727v7.999h-27.518V656.53h26.622v7.999H656.73v8.96h15.871V681.424z"/>
	<path d="M689.754,664.721h-11.583v-8.191h33.149v8.191h-11.775v34.941h-9.791V664.721z"/>
</g>
<g enable-background="new    ">
	<path d="M173.367,769.663l-9.937-31.008h7.683l3.772,13.111c1.058,3.681,2.024,7.224,2.761,11.088h0.138
		c0.782-3.727,1.749-7.407,2.807-10.949l3.956-13.25h7.453l-10.443,31.008H173.367z"/>
	<path d="M202.346,738.655v31.008h-7.039v-31.008H202.346z"/>
	<path d="M208.417,739.069c2.577-0.414,5.935-0.644,9.477-0.644c5.889,0,9.708,1.058,12.698,3.313
		c3.22,2.392,5.245,6.21,5.245,11.685c0,5.936-2.162,10.029-5.153,12.56c-3.266,2.715-8.235,4.003-14.308,4.003
		c-3.634,0-6.21-0.23-7.959-0.46V739.069z M215.456,764.372c0.598,0.139,1.564,0.139,2.438,0.139
		c6.349,0.046,10.489-3.45,10.489-10.857c0.046-6.44-3.726-9.845-9.753-9.845c-1.564,0-2.576,0.138-3.174,0.275V764.372z"/>
	<path d="M256.948,761.704l-2.208,7.959h-7.269l9.477-31.008h9.201l9.615,31.008h-7.545l-2.392-7.959H256.948z M266.885,732.905
		c0,2.484-1.932,4.462-5.245,4.462c-3.358,0-5.291-1.978-5.291-4.416c0-2.484,1.84-4.601,5.291-4.601
		C265.137,728.35,266.885,730.375,266.885,732.905z M264.814,756.459l-1.932-6.579c-0.552-1.84-1.104-4.141-1.564-5.98h-0.092
		c-0.46,1.84-0.92,4.187-1.426,5.98l-1.84,6.579H264.814z M259.57,732.951c0,1.058,0.736,2.07,2.024,2.07s2.024-0.921,2.024-2.116
		c0-1.15-0.736-2.209-2.024-2.209C260.214,730.696,259.57,731.8,259.57,732.951z"/>
	<path d="M279.9,739.069c1.84-0.368,5.567-0.644,9.063-0.644c4.278,0,6.9,0.414,9.155,1.748c2.162,1.15,3.727,3.267,3.727,6.072
		c0,2.761-1.61,5.337-5.106,6.625v0.092c3.542,0.967,6.165,3.635,6.165,7.637c0,2.807-1.288,5.015-3.22,6.579
		c-2.254,1.794-6.027,2.807-12.191,2.807c-3.451,0-6.027-0.23-7.591-0.46V739.069z M286.847,750.938h2.3
		c3.681,0,5.659-1.518,5.659-3.818c0-2.346-1.794-3.588-4.968-3.588c-1.519,0-2.393,0.092-2.991,0.184V750.938z M286.847,764.694
		c0.69,0.092,1.519,0.092,2.714,0.092c3.174,0,5.981-1.195,5.981-4.462c0-3.129-2.807-4.371-6.303-4.371h-2.393V764.694z"/>
	<path d="M336.069,753.836c0,10.168-6.165,16.332-15.228,16.332c-9.201,0-14.583-6.946-14.583-15.779
		c0-9.293,5.935-16.24,15.089-16.24C330.871,738.149,336.069,745.28,336.069,753.836z M313.665,754.25
		c0,6.073,2.852,10.352,7.545,10.352c4.738,0,7.453-4.509,7.453-10.535c0-5.566-2.668-10.352-7.499-10.352
		C316.425,743.715,313.665,748.224,313.665,754.25z"/>
	<path d="M357.18,761.704l-2.208,7.959h-7.269l9.477-31.008h9.201l9.615,31.008h-7.545l-2.392-7.959H357.18z M365.047,756.459
		l-1.932-6.579c-0.552-1.84-1.104-4.141-1.564-5.98h-0.092c-0.46,1.84-0.92,4.187-1.426,5.98l-1.84,6.579H365.047z"/>
	<path d="M380.133,738.655h6.947v13.71h0.138c0.69-1.196,1.426-2.301,2.116-3.404l7.039-10.306h8.604l-10.26,13.204l10.811,17.804
		h-8.188l-7.591-13.388l-2.668,3.267v10.121h-6.947V738.655z"/>
	<path d="M416.197,761.704l-2.209,7.959h-7.269l9.478-31.008h9.201l9.614,31.008h-7.545l-2.392-7.959H416.197z M424.063,756.459
		l-1.933-6.579c-0.552-1.84-1.104-4.141-1.563-5.98h-0.093c-0.459,1.84-0.92,4.187-1.426,5.98l-1.84,6.579H424.063z"/>
	<path d="M439.149,739.069c2.577-0.414,5.935-0.644,9.478-0.644c5.889,0,9.707,1.058,12.697,3.313
		c3.221,2.392,5.244,6.21,5.244,11.685c0,5.936-2.162,10.029-5.152,12.56c-3.266,2.715-8.234,4.003-14.308,4.003
		c-3.634,0-6.21-0.23-7.959-0.46V739.069z M446.188,764.372c0.599,0.139,1.563,0.139,2.438,0.139
		c6.349,0.046,10.488-3.45,10.488-10.857c0.047-6.44-3.726-9.845-9.752-9.845c-1.564,0-2.576,0.138-3.175,0.275V764.372z"/>
	<path d="M489.614,756.551h-11.41v7.36h12.744v5.751h-19.782v-31.008h19.138v5.751h-12.1v6.44h11.41V756.551z"/>
	<path d="M521.953,757.793c-0.139-3.727-0.276-8.235-0.276-12.744h-0.138c-0.967,3.957-2.255,8.373-3.451,12.008l-3.772,12.1h-5.475
		l-3.312-12.008c-1.013-3.634-2.07-8.051-2.807-12.1h-0.092c-0.185,4.187-0.322,8.972-0.553,12.836l-0.552,11.777h-6.486
		l1.978-31.008h9.339l3.037,10.352c0.966,3.588,1.932,7.453,2.622,11.087h0.138c0.874-3.588,1.933-7.683,2.944-11.133l3.313-10.306
		h9.155l1.702,31.008h-6.854L521.953,757.793z"/>
	<path d="M541.684,738.655v31.008h-7.039v-31.008H541.684z"/>
	<path d="M557.046,739.069c2.255-0.368,5.613-0.644,9.339-0.644c4.601,0,7.821,0.689,10.029,2.438
		c1.841,1.472,2.853,3.634,2.853,6.486c0,3.956-2.807,6.671-5.475,7.637v0.138c2.162,0.875,3.358,2.944,4.141,5.797
		c0.966,3.497,1.932,7.545,2.53,8.741h-7.177c-0.506-0.874-1.242-3.404-2.162-7.223c-0.828-3.864-2.162-4.923-5.015-4.969h-2.116
		v12.191h-6.947V739.069z M563.993,752.411h2.76c3.497,0,5.567-1.748,5.567-4.463c0-2.852-1.933-4.278-5.153-4.324
		c-1.702,0-2.668,0.138-3.174,0.23V752.411z"/>
	<path d="M583.587,765.936c0-2.484,1.703-4.278,4.141-4.278c2.438,0,4.095,1.748,4.095,4.278c0,2.438-1.656,4.232-4.141,4.232
		C585.29,770.168,583.587,768.375,583.587,765.936z"/>
	<path d="M596.283,738.655h18.954v5.751h-11.915v7.085h11.133v5.704h-11.133v12.468h-7.039V738.655z"/>
	<path d="M615.648,765.936c0-2.484,1.703-4.278,4.141-4.278c2.438,0,4.095,1.748,4.095,4.278c0,2.438-1.656,4.232-4.141,4.232
		C617.352,770.168,615.648,768.375,615.648,765.936z"/>
</g>
</svg>
