<?xml version="1.0" encoding="utf-8"?>
<!-- Generator: Adobe Illustrator 16.0.0, SVG Export Plug-In . SVG Version: 6.00 Build 0)  -->
<!DOCTYPE svg PUBLIC "-//W3C//DTD SVG 1.1//EN" "http://www.w3.org/Graphics/SVG/1.1/DTD/svg11.dtd">
<svg version="1.1" id="Layer_1" xmlns="http://www.w3.org/2000/svg" xmlns:xlink="http://www.w3.org/1999/xlink" x="0px" y="0px"
	 width="510.238px" height="510.236px" viewBox="0 0 510.238 510.236" enable-background="new 0 0 510.238 510.236"
	 xml:space="preserve">
<image overflow="visible" enable-background="new    " width="307" height="108" xlink:href="B80E0962.jpeg"  transform="matrix(1 0 0 1 -7936.4023 -7936.418)">
</image>
<g enable-background="new    ">
	<path fill="#3B3B3B" d="M147.498,65.863h20.631v65.526h36.138v15.361h-56.769V65.863z"/>
	<path fill="#3B3B3B" d="M270.472,112.547h-33.441v19.202h37.351v15.001H216.4V65.863h56.094v15.001h-35.463v16.801h33.441V112.547z
		"/>
	<path fill="#3B3B3B" d="M336.275,146.75l-8.225-14.641c-3.371-5.641-5.529-9.841-8.092-14.521h-0.27
		c-1.887,4.681-4.18,8.881-7.012,14.521l-7.551,14.641h-23.463l26.295-40.923l-25.351-39.964h23.597l7.957,14.762
		c2.695,4.92,4.719,8.88,6.877,13.441h0.27c2.156-5.161,3.91-8.761,6.201-13.441l7.688-14.762h23.461l-25.619,39.483l26.969,41.404
		H336.275z"/>
</g>
<g enable-background="new    ">
	<path fill="#3B3B3B" d="M153.491,263.521c8.601,3.92,21.815,7.84,35.45,7.84c14.683,0,22.444-5.414,22.444-13.627
		c0-7.841-6.712-12.321-23.703-17.734c-23.494-7.281-38.806-18.854-38.806-37.149c0-21.468,20.137-37.895,53.49-37.895
		c15.942,0,27.688,2.987,36.079,6.347l-7.132,22.961c-5.664-2.427-15.732-5.974-29.576-5.974s-20.557,5.6-20.557,12.134
		c0,8.027,7.971,11.574,26.22,17.734c24.961,8.214,36.708,19.788,36.708,37.522c0,21.095-18.25,39.015-57.056,39.015
		c-16.152,0-32.094-3.732-40.064-7.653L153.491,263.521z"/>
	<path fill="#3B3B3B" d="M265.708,168.688c9.859-1.493,23.703-2.613,43.211-2.613c19.719,0,33.773,3.36,43.211,10.081
		c9.021,6.347,15.104,16.801,15.104,29.121c0,12.321-4.615,22.775-13.006,29.868c-10.906,9.147-27.059,13.254-45.938,13.254
		c-4.195,0-7.971-0.187-10.907-0.56v44.989h-31.675V168.688z M297.383,225.812c2.728,0.56,6.083,0.747,10.698,0.747
		c16.99,0,27.479-7.654,27.479-20.534c0-11.574-9.02-18.481-24.961-18.481c-6.504,0-10.908,0.56-13.216,1.12V225.812z"/>
</g>
<g enable-background="new    ">
	<path fill="#3B3B3B" d="M236.557,385.706h-52.021v29.868h58.104v23.335h-90.198v-125.82h87.261v23.335h-55.167v26.135h52.021
		V385.706z"/>
	<path fill="#3B3B3B" d="M338.916,438.909l-12.795-22.774c-5.244-8.773-8.6-15.308-12.586-22.588h-0.42
		c-2.936,7.28-6.502,13.814-10.906,22.588l-11.747,22.774h-36.499l40.904-63.656l-39.436-62.164h36.709l12.375,22.962
		c4.195,7.653,7.342,13.813,10.697,20.907h0.42c3.357-8.027,6.084-13.627,9.65-20.907l11.955-22.962h36.5l-39.855,61.417
		l41.953,64.403H338.916z"/>
</g>
</svg>
