<?xml version="1.0" encoding="utf-8"?>
<!-- Generator: Adobe Illustrator 16.0.0, SVG Export Plug-In . SVG Version: 6.00 Build 0)  -->
<!DOCTYPE svg PUBLIC "-//W3C//DTD SVG 1.1//EN" "http://www.w3.org/Graphics/SVG/1.1/DTD/svg11.dtd">
<svg version="1.1" id="Layer_1" xmlns="http://www.w3.org/2000/svg" xmlns:xlink="http://www.w3.org/1999/xlink" x="0px" y="0px"
	 width="338px" height="288px" viewBox="90.619 100.618 338 288" enable-background="new 90.619 100.618 338 288"
	 xml:space="preserve">
<g>
	<g>
		<g>
			<defs>
				<rect id="SVGID_1_" x="124.598" y="180.668" width="265.946" height="195.915"/>
			</defs>
			<clipPath id="SVGID_2_">
				<use xlink:href="#SVGID_1_"  overflow="visible"/>
			</clipPath>
			<g clip-path="url(#SVGID_2_)">
				<g>
					<path fill="#101010" d="M198.817,229.471c3.449,7.507,7.218,13.151,17.077,7.601c3.482-1.962,4.571-3.466,4.661-7.088
						c0.209-8.554,0.76-17.1,1.318-25.64c0.269-4.119,1.716-8.082,6.57-7.784c4.552,0.28,7.489,3.532,7.857,8.209
						c0.713,9.041,0.282,17.816-8.056,23.857c-1.131,0.818-2.857,1.34-2.128,3.277c0.699,1.859,2.374,1.201,3.751,1.215
						c6.086,0.06,10.868-0.411,10.426-8.998c-0.405-7.865,0.743-15.978,3.577-23.469c1.968-5.202,5.599-9.876,12.022-6.698
						c6.489,3.214,6.746,8.596,3.34,14.518c-4.417-1.371-3.396-8.901-8.274-7.239c-4.094,1.396-3.592,6.87-4.497,10.725
						c-1.885,8.015,0.063,10.319,7.931,9.065c4.67-0.744,6.788,0.92,6.818,5.432c0.019,2.499-0.14,4.696,3.41,4.805
						c3.377,0.104,4.778-1.604,5.394-4.567c1.664-8.048,1.725-16.395,4.709-24.207c1.274-3.342,2.069-6.958,6.194-7.873
						c1.972-0.438,3.49,0.873,4.207,2.512c1.817,4.155-0.908,6.715-3.746,8.941c-3.233,2.536-4.541,5.987-5.737,10.428
						c5.743,0.298,7.416-4.227,10.176-7.166c2.17-2.313,3.871-5.549,7.709-5.17c1.537,0.152,2.563,1.624,2.418,3.244
						c-0.348,3.95-1.521,7.579-5.396,9.511c-2.357,1.176-4.83,2.137-7.285,3.111c-3.947,1.563-4.945,4.587-4.643,8.526
						c0.297,3.838,2.17,5.475,5.955,6.369c8.893,2.103,17.26,5.765,26.266,10.709c-2.084-9.306-6.988-16.89-7.557-25.701
						c-0.361-5.611-1.609-11.256,3.854-15.304c3.793-2.809,7.312-1.145,10.603,0.948c6.254,3.978,6.088,10.276,5.608,16.586
						c-0.104,1.38-0.008,3.184-1.983,3.376c-1.713,0.165-2.689-1.217-3.185-2.573c-0.799-2.204-1.219-4.545-1.899-6.797
						c-0.834-2.772-2.375-5.026-5.646-4.262c-2.684,0.627-3.92,3.209-3.369,5.523c3.254,13.679,6.322,27.511,17.109,39.602
						c2.986-10.389,5.256-19.116,8.07-27.668c1.145-3.476,2.313-7.57,6.741-8.599c1.634-0.379,2.73,0.916,3.244,2.405
						c1.563,4.524-1.705,6.837-4.157,9.836c-5.812,7.099-8.23,15.8-8.021,24.664c0.166,6.975,7.719,9.002,12.191,12.94
						c1.975,1.737,2.479-1.526,3.381-2.625c3.924-4.789,7.604-9.771,11.465-14.609c6.006-7.526,13.396-13.313,22.443-16.661
						c2.588-0.958,6.297-3.655,8.18-1.012c2.375,3.339-2.57,4.398-4.146,6.526c-8.086,10.913-15.592,22.174-21.153,34.605
						c-3.687,8.239-2.322,16.226,2.203,23.669c4.588,7.551,9.577,14.854,14.34,22.301c2.114,3.311,4.104,6.896,1.358,10.631
						c-3.069,4.182-7.405,2.73-11.284,1.467c-19.378-6.324-30.203-24.304-28.794-47.535c0.755-12.418,0.755-12.418-10.725-20.787
						c-4.119,8.111,3.223,16.513-0.471,24.58c-6.037-5.115-7.099-10.059-5.279-23.342c0.869-6.354,0.869-6.354-5.432-9.492
						c-0.918,4.867-1.519,9.811-2.84,14.552c-1.234,4.44-4.552,6.548-9.353,6.517c-4.985-0.031-7.821-2.762-8.894-7.104
						c-1.344-5.463-1.729-11.094,0.688-16.469c1.438-3.2,3.994-4.525,7.187-2.857c2.873,1.501,2.616,4.309,1.752,6.998
						c-0.176,0.544-0.515,1.086-0.908,1.499c-2.424,2.542-3.798,5.396-2.027,8.784c0.945,1.813,2.947,1.998,4.691,1.438
						c3.973-1.275,4.854-4.713,5.43-8.32c0.974-6.103-0.229-10.777-6.666-13.547c-7.738-3.329-15.113-7.542-24.152-8.354
						c0.623,5.072,2.896,8.801,5.385,12.3c1.802,2.536,2.886,5.038,2.646,8.155c-0.185,2.362,0.021,5.385-2.851,5.717
						c-2.836,0.327-3.783-2.383-3.953-4.894c-0.476-6.873-2.976-13.165-5.437-19.475c-1.055-2.703-2.905-4.95-5.891-4.177
						c-3.018,0.785-1.713,3.924-1.865,6.069c-0.254,3.587,0.439,6.85,2.912,9.862c1.6,1.945,2.191,4.733,3.172,7.168
						c1.799,4.453,0.861,9.32-3.385,10.391c-5.021,1.269-5.35-4.284-5.861-7.795c-0.979-6.688-2.639-13.406-1.602-20.222
						c0.786-5.17-1.455-6.495-6.229-6.921c-14.559-1.299-18.785,3.545-13.868,16.591c1.959,5.197,4.29,9.239,9.563,2.621
						c1.037-1.302,2.152-3.343,4.153-1.931c1.024,0.724,1.919,2.527,1.839,3.775c-0.354,5.545-0.102,11.92-7.099,13.68
						c-6.279,1.576-9.871-2.363-12.043-7.788c-2.685-6.704-2.843-13.775-3.048-20.86c-0.06-2.025,0.671-5.9-3.065-4.576
						c-3.35,1.187-9.528-1.666-9.725,4.729c-0.188,6.113,0.2,12.53,5.086,17.263c1.081,1.049,2.131,1.895,2.543,3.393
						c1.134,4.127,2.076,10.117-1.537,11.285c-4.494,1.453-4.667-4.832-5.635-8.104c-1.915-6.479-2.999-13.199-4.692-19.751
						c-0.446-1.723,0.111-4.581-2.907-4.695c-2.724-0.104-5.656,0.571-7.289,2.599c-1.654,2.054,1.077,3.667,2.238,5.02
						c4.487,5.236,6.154,11.576,6.357,18.029c0.214,6.831-1.051,13.581-8.163,17.358c-4.067,2.158-7.568,1.19-10.375-1.865
						c-5.229-5.691-8.393-12.149-5.394-20.112c0.279-0.739,1.119-1.271,1.885-2.101c4.066,1.593,3.322,5.819,4.789,8.666
						c1.662,3.229,2.849,7.082,7.338,6.115c4.439-0.953,5.316-4.695,5.532-8.896c0.416-8.106-5.21-12.828-9.699-18.15
						c-1.604-1.902-3.645-0.521-5.627,0.311c-12.659,5.308-14.627,8.95-12.746,24.335c-0.655,0.901-1.311,1.804-1.967,2.706
						c-5.185-19.687-9.381-39.456-5.852-60.01c0.313-1.828,1.313-4.337-1.005-5.564c-2.018-1.07-4.125,0.05-5.695,1.378
						c-22.398,18.937-40.776,40.106-39.487,72.038c-0.836,0.677-1.673,1.354-2.511,2.029c-4.898-26.344,6.633-46.969,23.211-65.649
						c4.675-5.269,10.144-9.865,15.48-14.504c2.769-2.408,6.316-3.631,9.848-1.738c3.486,1.87,4.34,5.304,4.193,9.092
						c-0.478,12.295-3.586,24.608,0.447,36.787c15.616-7.081,15.616-7.081,11.704-18.099
						C197.78,231.852,198.298,230.66,198.817,229.471z M232.988,208.268c-0.917-2.107,1.635-7.182-3.324-6.815
						c-4.874,0.364-5.68,5.051-5.798,9.427c-0.095,3.47,0.418,7.632,4.303,7.114C232.446,217.422,232.945,212.714,232.988,208.268z"
						/>
					<path fill="#191919" d="M186.929,277.282c0.656-0.902,1.312-1.805,1.967-2.706c2.289,9.021,4.669,18.019,6.83,27.069
						c1.245,5.215-1.008,7.578-6.431,7.724c-15.109,0.401-29.667-2.573-44.053-6.72c-7.739-2.23-10.582-8.662-12.861-15.496
						c0.837-0.676,1.674-1.354,2.511-2.029c1.755,5.594,4.626,9.855,10.74,11.813c13.061,4.179,26.438,5.541,40.037,5.875
						c5.869,0.145,7.159-2.223,5.596-7.567C189.537,289.338,188.35,283.276,186.929,277.282z"/>
					<path fill="#101010" d="M252.161,162.608c3.692-2.104,4.055-9.864,12.278-6.784c-10.687,7.864-6.154,15.481,1.205,22.77
						c-9.031,2.947-9.201-5.821-13.445-7.925c-1.729-0.199-1.369,0.994-1.617,1.718c-0.827,2.408,1.858,7.003-2.85,6.848
						c-4.421-0.147-2.201-4.543-2.489-7.066c-0.362-3.188-0.365-6.479-0.006-9.667c0.29-2.568-1.965-6.889,2.226-7.315
						C253.258,154.599,248.618,160.501,252.161,162.608z"/>
					<path fill="#191919" d="M277.771,154.01c1.766,1.188,5.475-0.41,5.66,2.603c0.229,3.608-2.81,2.455-5.039,2.174
						c-1.263-0.157-2.355,0.674-2.543,1.931c-0.422,2.867,2.207,3.21,3.895,3.936c4.887,2.104,6.908,5.379,4.684,10.449
						c-2,4.554-6.021,5.163-10.354,4.529c-2.025-0.296-4.342-1.021-4.191-3.574c0.205-3.479,2.682-1.941,4.555-1.629
						c1.715,0.286,3.853,0.72,4.226-1.645c0.418-2.654-1.918-3.146-3.882-3.875c-4.772-1.771-5.797-5.421-4.581-9.954
						C271.218,155.158,274.373,154.417,277.771,154.01z"/>
					<path fill="#101010" d="M225.515,156.167c-6.87,3.432-4.7,9.362-5.308,14.539c-0.346,2.945,2.621,8.442-2.846,8.355
						c-4.233-0.067-2.037-5.192-2.32-8.046c-0.519-5.199,1.817-11.209-6.954-14.667
						C215.053,154.178,220.034,154.765,225.515,156.167z"/>
					<path fill="#191919" d="M228.856,165.775c1.426-3.016-2.712-10.242,2.9-10.146c5.059,0.087,1.854,7.264,2.52,11.234
						c0.59,3.518-1.17,8.129,5.151,7.845c1.308-0.059,2.03,1.119,1.944,2.414c-0.085,1.287-0.992,1.901-2.2,2.358
						c-6.032,2.28-10.121-0.379-10.306-6.825C228.807,170.59,228.856,168.524,228.856,165.775z"/>
					<path fill="#101010" d="M197.111,207.779c0.493-3.906,2.324-6.642,6.551-6.881c3.66-0.208,6.386,1.839,7.509,5.002
						c1.553,4.377,2.902,9.078,0.006,13.502c-0.483,0.737-1.986,1.106-3.021,1.108c-1.314,0.003-1.931-1.164-1.969-2.414
						c-0.061-2.041,0.024-4.088,0.003-6.131c-0.026-2.39-0.203-5.103-2.673-5.982c-2.977-1.058-3.664,2.063-5.015,3.799
						C198.039,209.114,197.575,208.447,197.111,207.779z"/>
					<path fill="#191919" d="M197.111,207.779c0.464,0.668,0.928,1.335,1.392,2.003c-2.067,6.597-1.409,13.15,0.313,19.688
						c-0.519,1.189-1.037,2.381-1.554,3.571C193.126,224.646,192.866,216.226,197.111,207.779z"/>
					<path fill="#191919" d="M174.241,247.861c0.153,4.878,0.481,10.303-6.479,10.055c-6.348-0.228-7.986-4.984-8.006-10.519
						c-0.001-0.291,0.088-0.581,0.135-0.872c0.84-5.075-1.834-13.376,6.556-12.743C173.19,234.291,174.931,241.307,174.241,247.861z
						"/>
				</g>
			</g>
		</g>
	</g>
</g>
<g enable-background="new    ">
	<path fill="#101010" d="M216.088,161.031h-6.211v-4.393h17.776v4.393h-6.314v18.737h-5.25L216.088,161.031L216.088,161.031z"/>
	<path fill="#101010" d="M230.437,156.639h5.25v18.737h9.197v4.393h-14.447V156.639z"/>
	<path fill="#101010" d="M247.976,156.639h5.182v10.227h0.103c0.515-0.893,1.064-1.716,1.579-2.539l5.25-7.688h6.417l-7.651,9.85
		l8.063,13.28h-6.108l-5.663-9.986l-1.99,2.437v7.55h-5.182V156.639L247.976,156.639z"/>
	<path fill="#101010" d="M269.223,174.381c1.406,0.721,3.567,1.441,5.799,1.441c2.401,0,3.672-0.995,3.672-2.505
		c0-1.441-1.099-2.266-3.877-3.261c-3.844-1.338-6.35-3.466-6.35-6.829c0-3.946,3.294-6.966,8.751-6.966
		c2.607,0,4.529,0.549,5.902,1.166l-1.167,4.222c-0.928-0.446-2.573-1.099-4.839-1.099c-2.265,0-3.363,1.029-3.363,2.23
		c0,1.476,1.306,2.128,4.29,3.261c4.084,1.51,6.005,3.638,6.005,6.897c0,3.878-2.983,7.172-9.334,7.172
		c-2.644,0-5.25-0.686-6.555-1.406L269.223,174.381z"/>
</g>
</svg>
