<?xml version="1.0" standalone="no"?>
<!DOCTYPE svg PUBLIC "-//W3C//DTD SVG 20010904//EN"
 "http://www.w3.org/TR/2001/REC-SVG-20010904/DTD/svg10.dtd">
<svg version="1.0" xmlns="http://www.w3.org/2000/svg"
 width="255.000000pt" height="255.000000pt" viewBox="0 0 255.000000 255.000000"
 preserveAspectRatio="xMidYMid meet">
<metadata>
Created by potrace 1.11, written by Peter Selinger 2001-2013
</metadata>
<g transform="translate(0.000000,255.000000) scale(0.100000,-0.100000)"
fill="#000000" stroke="none">
<path d="M1138 2427 c9 -10 10 -17 2 -22 -5 -3 -10 0 -10 7 0 9 -3 9 -10 -2
-6 -10 -10 -11 -10 -2 0 6 -5 12 -11 12 -5 0 -8 -4 -5 -9 7 -11 -13 -9 -33 3
-9 6 -12 5 -8 -1 4 -6 -2 -13 -13 -16 -11 -3 -18 -2 -16 2 3 4 -4 7 -14 8 -11
1 -22 -2 -25 -8 -3 -5 1 -6 9 -3 9 3 16 2 16 -3 0 -5 -9 -9 -20 -10 -11 -1
-20 2 -20 7 0 10 -19 8 -37 -3 -7 -5 -19 -5 -25 -1 -9 5 -8 2 1 -9 12 -15 12
-17 -4 -11 -14 6 -16 4 -10 -7 7 -12 6 -12 -7 -1 -13 10 -18 10 -24 1 -5 -8
-3 -9 6 -4 9 5 11 4 6 -4 -4 -6 -13 -8 -19 -4 -7 4 -19 8 -27 10 -10 1 -9 -3
5 -14 11 -9 13 -13 5 -10 -8 2 -24 -3 -35 -12 -17 -14 -18 -14 -10 -1 6 9 1 6
-10 -6 -11 -12 -28 -20 -38 -19 -14 3 -17 -1 -13 -13 5 -13 2 -12 -10 3 -12
15 -15 16 -11 3 8 -23 -16 -53 -37 -45 -14 5 -15 3 -6 -13 8 -16 7 -18 -9 -15
-13 2 -18 -1 -15 -9 3 -7 -3 -22 -13 -32 -10 -11 -14 -15 -10 -8 5 7 2 15 -5
20 -7 4 -10 4 -6 -1 4 -4 3 -14 -3 -21 -7 -8 -7 -14 1 -19 17 -10 -8 -35 -28
-28 -11 3 -13 2 -6 -4 14 -11 14 -42 0 -37 -7 3 -11 -9 -10 -31 1 -19 -2 -32
-7 -29 -5 3 -7 9 -4 14 3 5 1 11 -4 15 -10 6 -5 -40 6 -58 3 -6 1 -7 -5 -3 -6
3 -13 2 -17 -3 -3 -5 3 -15 12 -21 16 -10 16 -11 1 -6 -10 3 -20 1 -23 -4 -4
-6 -1 -10 6 -10 7 0 4 -7 -7 -16 -10 -8 -13 -13 -6 -9 16 8 15 -5 -3 -29 -8
-10 -12 -22 -10 -27 3 -4 1 -10 -5 -14 -5 -3 -10 -2 -10 3 0 6 -7 13 -16 16
-13 5 -14 4 -6 -7 9 -11 7 -13 -11 -12 -12 2 -21 8 -19 14 1 7 -2 10 -8 6 -6
-3 -8 -11 -5 -16 4 -5 1 -9 -4 -9 -6 0 -11 3 -11 8 0 4 -10 13 -23 21 l-22 14
20 -23 c23 -26 4 -19 -35 14 -14 11 -19 14 -12 6 19 -21 14 -32 -8 -18 -16 11
-22 9 -34 -7 -12 -17 -16 -18 -32 -5 -17 14 -18 14 -6 -2 8 -9 10 -23 6 -29
-4 -7 -3 -9 3 -6 6 4 13 0 16 -8 4 -8 1 -12 -6 -9 -8 3 -13 -5 -14 -18 0 -13
1 -17 4 -10 3 6 9 9 14 6 6 -3 5 -11 -2 -20 -8 -10 -8 -14 0 -14 6 0 11 -9 11
-20 0 -13 9 -22 27 -26 24 -6 25 -8 8 -14 -16 -6 -12 -10 23 -25 31 -14 39
-22 31 -31 -9 -10 -4 -11 20 -4 30 8 40 -4 16 -23 -5 -4 2 -5 18 -1 17 4 27 2
27 -5 0 -6 5 -11 11 -11 5 0 7 5 3 11 -3 6 5 3 20 -6 14 -10 26 -14 26 -10 0
3 7 -1 16 -9 8 -9 19 -14 24 -11 5 3 7 -3 6 -12 -2 -10 1 -21 7 -25 13 -8 17
-71 5 -79 -5 -3 -3 -9 5 -12 11 -4 15 0 12 14 -2 11 0 17 6 14 5 -4 7 -10 4
-15 -3 -5 -1 -11 4 -14 6 -4 6 -18 1 -35 -7 -25 -6 -29 8 -24 11 5 13 3 7 -8
-11 -17 -14 -50 -4 -44 4 3 12 -2 19 -10 11 -13 10 -14 -3 -10 -8 4 -18 1 -23
-6 -5 -8 -3 -10 6 -4 10 6 12 3 8 -13 -4 -14 -2 -19 6 -16 7 3 13 -2 13 -10 0
-8 -4 -13 -9 -10 -4 3 -8 1 -8 -5 0 -5 5 -11 10 -13 6 -2 12 -26 15 -55 3 -40
0 -56 -13 -70 -16 -16 -16 -17 1 -10 12 5 17 1 17 -12 0 -11 -6 -22 -12 -24
-8 -3 -9 -6 -2 -6 15 -1 5 -51 -10 -51 -6 0 -3 -5 6 -11 9 -5 15 -16 12 -24
-4 -8 -9 -13 -13 -10 -4 2 -8 -2 -8 -10 0 -8 4 -12 9 -9 4 3 8 1 8 -4 0 -6 -7
-13 -16 -16 -15 -6 -15 -8 2 -28 11 -12 13 -18 5 -13 -11 6 -13 4 -7 -10 5
-15 4 -16 -9 -5 -14 11 -14 10 -6 -13 8 -21 7 -25 -3 -21 -8 3 -17 1 -21 -5
-9 -15 -25 -14 -25 2 0 8 -7 14 -15 14 -8 0 -12 -4 -10 -8 3 -4 -2 -10 -11
-13 -8 -3 -12 -2 -9 3 3 5 2 12 -3 15 -5 3 -9 0 -10 -7 0 -7 -3 -21 -6 -32 -2
-11 -5 -26 -5 -33 -1 -7 -6 -10 -13 -6 -8 5 -9 2 -5 -9 4 -11 1 -17 -8 -17 -7
0 -17 -5 -21 -12 -5 -7 -2 -9 8 -6 8 4 15 0 15 -8 0 -7 -5 -10 -10 -7 -6 4 -8
0 -4 -10 3 -9 2 -19 -3 -22 -6 -4 -10 -15 -10 -26 0 -13 -4 -18 -12 -13 -7 5
-8 3 -3 -7 13 -20 13 -49 2 -56 -6 -4 -7 -1 -2 7 6 9 4 11 -5 5 -10 -6 -10
-10 3 -20 14 -10 14 -12 -1 -23 -9 -7 -12 -10 -5 -7 9 4 9 -3 3 -26 -7 -25 -6
-30 5 -25 9 3 12 0 8 -9 -3 -8 -10 -12 -16 -8 -5 3 -7 1 -3 -5 3 -5 3 -12 -1
-15 -5 -2 -2 -2 5 -1 6 2 12 -1 12 -5 0 -5 -6 -12 -12 -14 -8 -3 -6 -6 5 -6 9
-1 17 -6 17 -12 0 -5 -6 -7 -13 -3 -8 5 -7 2 2 -9 17 -21 20 -59 6 -69 -6 -5
-5 -8 3 -8 8 0 10 -5 6 -13 -6 -9 -5 -9 7 0 13 11 15 8 11 -19 -4 -24 -2 -29
9 -23 12 8 12 6 0 -8 -7 -9 -9 -17 -3 -17 5 0 15 -14 22 -30 11 -26 17 -30 41
-26 16 2 27 0 24 -4 -3 -5 -1 -11 5 -15 5 -3 10 1 10 10 0 9 5 13 10 10 6 -4
17 -1 25 5 18 15 20 -1 2 -20 -6 -8 -3 -7 9 3 11 9 25 14 29 10 5 -5 4 -1 -3
8 -10 13 -8 15 11 14 12 -1 29 3 37 9 13 9 13 9 3 -5 -11 -13 -10 -15 7 -14
11 1 23 5 27 10 5 4 2 5 -4 1 -7 -4 -13 -5 -13 -2 0 3 9 10 19 16 15 8 24 6
37 -8 17 -16 17 -16 12 4 -3 13 -1 21 8 21 8 0 14 -7 15 -16 0 -12 3 -11 9 4
5 11 9 14 9 7 1 -7 6 -10 11 -7 6 4 7 11 4 17 -4 6 3 5 16 -2 14 -7 20 -8 16
-1 -8 13 37 26 59 17 11 -4 14 -2 9 6 -5 8 -2 9 11 4 15 -5 16 -4 6 8 -10 12
-9 15 8 13 11 0 19 -4 18 -8 -1 -4 3 -7 8 -7 6 -1 8 7 7 16 -3 14 -2 14 14 1
11 -8 15 -9 10 -2 -6 12 17 19 46 14 4 0 5 6 2 14 -5 11 -2 13 12 8 14 -5 16
-3 11 10 -6 15 -4 16 15 6 19 -10 20 -9 14 7 -6 15 -5 16 5 7 9 -9 17 -9 32
-1 14 7 22 7 27 -3 10 -15 49 -19 57 -6 4 6 1 7 -7 2 -9 -5 -11 -4 -6 4 6 8
12 9 20 2 7 -6 15 -8 18 -6 10 10 49 14 43 4 -4 -5 -11 -7 -16 -4 -5 3 -6 -1
-3 -10 6 -14 8 -13 23 2 20 22 57 31 45 11 -6 -10 -4 -10 9 1 9 7 17 9 17 4 0
-5 15 -10 32 -11 18 -2 37 -7 42 -12 6 -6 18 -10 28 -10 10 0 18 -7 18 -16 0
-12 6 -15 21 -11 17 5 20 2 16 -15 -5 -19 -5 -19 14 -2 10 9 22 14 26 11 3 -4
1 -7 -5 -7 -7 0 -12 -4 -12 -9 0 -5 9 -7 20 -4 11 3 26 1 33 -5 6 -5 20 -8 30
-7 10 2 17 -3 17 -12 0 -13 2 -13 17 -2 14 12 16 12 8 0 -6 -11 -3 -13 13 -9
20 6 27 -2 23 -25 -1 -5 3 -6 9 -2 6 3 8 11 5 16 -3 5 1 6 9 3 9 -3 16 -14 17
-23 0 -12 2 -12 9 4 5 11 9 15 9 10 1 -16 39 -36 46 -25 4 6 1 9 -6 8 -6 -2
-14 4 -16 12 -4 13 -3 13 6 0 6 -8 11 -10 11 -5 0 6 7 2 14 -8 9 -12 16 -14
21 -7 3 5 11 7 17 4 7 -4 6 -9 -2 -14 -8 -5 -7 -9 5 -13 9 -4 13 -3 10 3 -3 6
1 10 10 10 10 0 13 5 9 12 -4 7 -3 8 5 4 8 -5 9 -12 2 -20 -7 -8 -4 -12 10
-12 10 0 19 4 19 9 0 5 8 1 17 -9 12 -11 18 -13 21 -5 3 8 9 6 18 -6 13 -17
15 -17 28 0 9 12 16 15 21 7 9 -15 36 7 29 25 -3 7 0 16 7 21 8 5 10 3 4 -6
-5 -8 -4 -11 3 -7 11 8 11 25 -1 44 -5 9 -3 11 6 7 19 -7 32 12 16 22 -8 5 -9
3 -4 -6 5 -9 4 -11 -4 -6 -15 10 -3 29 15 22 8 -3 11 0 7 9 -3 8 -10 12 -17 8
-7 -4 -7 -1 1 9 7 8 9 19 5 24 -4 4 2 2 12 -6 18 -14 19 -14 6 9 -11 22 -10
23 5 17 15 -5 16 -4 5 9 -7 8 -16 12 -21 9 -16 -9 -10 3 8 17 9 8 14 9 10 3
-3 -6 0 -11 7 -11 11 0 11 5 0 25 -11 22 -11 27 2 37 17 12 8 49 -10 38 -6 -3
-2 4 9 17 11 13 14 20 8 16 -7 -4 -13 -4 -14 1 0 4 -2 18 -3 31 -2 14 2 21 9
18 6 -2 12 2 12 10 0 7 -4 11 -8 9 -3 -3 -12 2 -18 9 -9 11 -9 16 0 22 8 5 9
3 4 -6 -5 -9 -4 -11 4 -6 9 6 9 11 0 22 -6 7 -14 12 -18 10 -4 -3 -7 4 -7 14
0 10 4 16 8 14 4 -3 5 2 2 10 -3 9 -11 13 -17 9 -5 -3 -7 -1 -3 5 3 6 2 13 -3
16 -5 3 -8 19 -7 36 2 22 -1 27 -10 19 -10 -8 -11 -4 -4 19 6 23 5 30 -4 26
-7 -3 -19 2 -26 11 -10 12 -10 18 1 32 12 14 12 16 -1 8 -19 -12 -51 -14 -44
-3 3 5 -6 6 -20 2 -16 -4 -26 -2 -26 4 0 6 -10 14 -21 17 -12 4 -18 10 -12 14
14 10 10 46 -6 43 -12 -3 -12 0 -1 12 15 19 24 21 14 4 -4 -7 -3 -8 5 -4 6 4
9 12 5 17 -3 5 -10 7 -15 4 -13 -9 -11 9 4 24 10 12 8 13 -8 7 -11 -4 -16 -4
-12 0 4 4 2 13 -4 21 -8 9 -8 13 -1 13 6 0 9 9 7 20 -2 11 0 18 4 16 4 -3 6 6
3 19 -2 14 -8 23 -11 20 -4 -2 -8 3 -8 11 0 8 6 13 12 10 8 -3 10 4 7 20 -2
13 -7 22 -11 20 -4 -3 -7 6 -7 20 0 27 6 30 26 12 12 -11 12 -10 1 4 -7 9 -9
23 -5 30 6 10 5 11 -7 1 -13 -10 -16 -10 -16 2 0 8 4 15 9 15 4 0 8 5 8 11 0
5 -4 8 -8 5 -5 -3 -9 1 -9 9 0 18 9 19 26 3 7 -7 4 4 -7 24 l-21 36 22 17 c12
9 17 14 11 11 -8 -4 -11 7 -11 29 1 25 5 34 15 30 7 -2 10 -1 7 4 -3 5 -1 12
4 16 5 3 9 14 8 25 -1 10 -5 17 -9 14 -4 -3 -5 -11 -2 -18 3 -8 1 -16 -4 -20
-13 -8 -8 32 6 46 7 7 12 20 12 31 0 10 5 15 10 12 6 -3 10 -2 10 4 0 5 -6 12
-12 14 -8 3 -5 6 6 6 16 1 17 3 5 19 -11 14 -10 14 8 -2 22 -18 22 -18 18 3
-2 13 0 19 6 15 5 -3 17 0 26 8 15 11 16 11 10 -6 -6 -15 -5 -17 6 -8 8 7 18
8 23 4 4 -4 3 1 -4 10 -12 14 -10 16 9 11 17 -5 20 -3 14 8 -7 11 -6 12 6 2
11 -9 20 -8 39 2 14 8 21 15 15 15 -5 1 0 5 13 11 13 5 21 13 18 18 -3 5 1 12
10 15 8 3 12 2 9 -3 -3 -5 0 -13 7 -17 7 -4 10 -4 6 1 -4 4 0 14 10 22 11 10
12 12 2 8 -10 -4 -9 -2 2 8 10 8 14 18 10 22 -4 5 0 6 9 3 9 -4 16 -1 16 8 0
7 -4 11 -9 8 -4 -3 -8 0 -8 5 0 6 4 11 9 11 4 0 7 11 6 25 -2 15 3 29 13 35
15 8 15 9 -2 10 -15 0 -16 3 -6 15 9 11 8 19 -4 37 -9 12 -16 17 -16 11 0 -7
5 -15 10 -18 6 -3 10 -12 10 -18 0 -7 -8 0 -18 16 -18 29 -31 34 -49 16 -7 -7
-15 -6 -26 5 -14 15 -16 14 -22 -5 -4 -12 -10 -18 -14 -13 -10 15 -61 10 -71
-6 -8 -12 -10 -12 -11 5 l0 20 -9 -20 c-8 -18 -9 -18 -9 -2 -1 10 -5 16 -10
13 -5 -3 -14 1 -21 9 -10 12 -8 16 11 24 23 10 24 10 2 10 -26 1 -38 17 -22
27 8 5 9 3 4 -7 -7 -11 -6 -12 7 -2 8 7 19 9 23 5 5 -4 5 -1 1 6 -4 7 -11 10
-16 7 -4 -3 -14 3 -21 12 -12 15 -12 16 5 10 14 -6 16 -4 9 5 -6 7 -9 21 -8
31 2 9 0 15 -5 12 -4 -3 -10 2 -14 10 -3 8 -1 17 5 20 5 4 7 11 3 16 -4 6 -11
6 -20 -2 -17 -14 -18 -5 -3 23 8 15 8 19 0 14 -6 -4 -11 -1 -11 8 0 8 3 16 8
19 4 2 2 3 -5 1 -18 -4 -24 8 -11 23 16 19 2 29 -19 12 -15 -12 -16 -12 -10 3
7 21 -19 51 -36 41 -7 -3 -9 -3 -5 2 4 4 2 15 -4 24 -8 9 -3 8 12 -4 20 -16
22 -17 11 -2 -17 21 -58 46 -47 28 4 -6 5 -11 2 -11 -3 0 -10 9 -16 20 -9 17
-8 19 7 14 15 -5 15 -4 3 4 -10 8 -19 7 -29 -1 -12 -10 -14 -9 -8 6 4 10 3 16
-2 12 -5 -3 -11 -1 -13 5 -1 5 -14 11 -27 13 -14 2 -28 12 -31 22 -5 14 -8 16
-15 5 -6 -10 -12 -7 -27 11 -16 21 -17 21 -12 4 5 -18 4 -18 -6 -2 -6 9 -20
17 -31 17 -14 0 -18 4 -13 13 5 7 0 6 -11 -3 -17 -14 -18 -13 -12 3 3 9 2 17
-3 17 -6 0 -10 -4 -10 -8 0 -5 -6 -9 -14 -9 -8 0 -12 6 -10 12 3 6 -2 12 -10
12 -8 0 -13 -3 -11 -7 2 -4 -2 -7 -10 -7 -8 0 -11 5 -8 10 4 6 -3 8 -16 4 -19
-5 -20 -3 -9 10 11 13 7 13 -22 -2 -28 -15 -33 -15 -22 -2 10 12 10 17 1 23
-7 4 -9 3 -6 -3 4 -6 0 -13 -8 -17 -10 -3 -15 1 -15 12 -1 16 -1 16 -10 0 -6
-10 -18 -14 -31 -11 -13 4 -17 8 -9 13 8 5 7 9 -5 13 -11 5 -14 3 -9 -5 5 -8
2 -9 -11 -4 -15 5 -16 4 -6 -8 10 -12 7 -12 -21 -2 -18 6 -40 15 -48 20 -8 5
-6 -1 5 -14 l20 -23 -21 11 c-19 10 -29 10 -69 2 -20 -4 -36 0 -31 8 3 5 -1 9
-9 9 -8 0 -12 -4 -10 -8 3 -4 -2 -10 -11 -13 -8 -3 -13 -2 -10 2 3 4 -5 14
-17 22 -20 12 -21 12 -9 -3z m-196 -59 c-7 -7 -12 -8 -12 -2 0 14 12 26 19 19
2 -3 -1 -11 -7 -17z m1168 -527 c0 -6 -4 -12 -8 -15 -5 -3 -9 1 -9 9 0 8 4 15
9 15 4 0 8 -4 8 -9z m40 -230 c0 -5 -7 -12 -16 -15 -14 -5 -15 -4 -4 9 14 17
20 19 20 6z m10 -1175 c0 -3 -4 -8 -10 -11 -5 -3 -10 -1 -10 4 0 6 5 11 10 11
6 0 10 -2 10 -4z m-85 -275 c3 -5 2 -12 -3 -15 -5 -3 -9 1 -9 9 0 17 3 19 12
6z m-50 -21 c3 -5 1 -10 -4 -10 -6 0 -11 5 -11 10 0 6 2 10 4 10 3 0 8 -4 11
-10z"/>
<path d="M1223 2425 c0 -7 6 -11 14 -8 7 3 13 6 13 8 0 2 -6 5 -13 8 -8 3 -14
-1 -14 -8z"/>
<path d="M761 2314 c0 -11 3 -14 6 -6 3 7 2 16 -1 19 -3 4 -6 -2 -5 -13z"/>
<path d="M2025 1870 c3 -5 8 -10 11 -10 2 0 4 5 4 10 0 6 -5 10 -11 10 -5 0
-7 -4 -4 -10z"/>
<path d="M2283 1763 c0 -9 4 -10 14 -2 7 6 13 12 13 14 0 1 -6 2 -13 2 -8 0
-14 -6 -14 -14z"/>
<path d="M535 1540 c-3 -5 -1 -10 4 -10 6 0 11 5 11 10 0 6 -2 10 -4 10 -3 0
-8 -4 -11 -10z"/>
<path d="M563 1495 c0 -8 4 -12 9 -9 5 3 6 10 3 15 -9 13 -12 11 -12 -6z"/>
<path d="M1928 1303 c7 -3 16 -2 19 1 4 3 -2 6 -13 5 -11 0 -14 -3 -6 -6z"/>
<path d="M635 1150 c-3 -5 -1 -10 4 -10 6 0 11 5 11 10 0 6 -2 10 -4 10 -3 0
-8 -4 -11 -10z"/>
<path d="M1933 999 c-2 -23 3 -25 10 -4 4 8 3 16 -1 19 -4 3 -9 -4 -9 -15z"/>
<path d="M583 823 c0 -9 4 -10 14 -2 7 6 13 12 13 14 0 1 -6 2 -13 2 -8 0 -14
-6 -14 -14z"/>
<path d="M2115 690 c-3 -5 -1 -10 4 -10 6 0 11 5 11 10 0 6 -2 10 -4 10 -3 0
-8 -4 -11 -10z"/>
<path d="M1159 313 c-13 -16 -12 -17 4 -4 16 13 21 21 13 21 -2 0 -10 -8 -17
-17z"/>
<path d="M1450 300 c0 -5 5 -10 11 -10 5 0 7 5 4 10 -3 6 -8 10 -11 10 -2 0
-4 -4 -4 -10z"/>
<path d="M1475 280 c-3 -6 1 -7 9 -4 18 7 21 14 7 14 -6 0 -13 -4 -16 -10z"/>
<path d="M1636 222 c-3 -5 1 -9 9 -9 8 0 12 4 9 9 -3 4 -7 8 -9 8 -2 0 -6 -4
-9 -8z"/>
<path d="M1690 196 c0 -2 7 -7 16 -10 8 -3 12 -2 9 4 -6 10 -25 14 -25 6z"/>
<path d="M670 171 c0 -6 4 -13 10 -16 6 -3 7 1 4 9 -7 18 -14 21 -14 7z"/>
</g>
</svg>
