<?xml version="1.0" encoding="utf-8"?>
<!-- Generator: Adobe Illustrator 16.0.0, SVG Export Plug-In . SVG Version: 6.00 Build 0)  -->
<!DOCTYPE svg PUBLIC "-//W3C//DTD SVG 1.1//EN" "http://www.w3.org/Graphics/SVG/1.1/DTD/svg11.dtd">
<svg version="1.1" id="Layer_1" xmlns="http://www.w3.org/2000/svg" xmlns:xlink="http://www.w3.org/1999/xlink" x="0px" y="0px"
	 width="510.237px" height="510.236px" viewBox="0 0 510.237 510.236" enable-background="new 0 0 510.237 510.236"
	 xml:space="preserve">
<g>
	<g>
		<path fill-rule="evenodd" clip-rule="evenodd" fill="#911318" d="M512.598,257.084c0,83.813-0.023,167.626,0.086,251.438
			c0.005,3.29-0.475,4.165-4.023,4.162c-167.959-0.116-335.918-0.119-503.877,0.009c-3.78,0.003-4.27-0.989-4.268-4.423
			c0.094-167.792,0.094-335.585,0-503.377c-0.002-3.438,0.496-4.423,4.271-4.42C172.578,0.601,340.371,0.6,508.163,0.479
			c3.895-0.003,4.529,1.033,4.523,4.666C512.573,89.125,512.598,173.104,512.598,257.084z"/>
		<path fill-rule="evenodd" clip-rule="evenodd" fill="#FEFEFE" d="M340.405,168.557c-3.629,7.719-6.327,15.903-11.529,22.832
			c-2.158,2.875-4.242,5.805-6.359,8.71c-0.871,1.634-1.154,3.617-2.824,4.777c-1.509,3.348-5.823,3.223-7.629,6.206
			c-0.22,0.453-0.475,0.871-0.713,1.305c-1.477,3.437-1.246,7.062-1.283,10.655c-0.03,3.08-1.053,5.159-4.676,4.547
			c-2.515-1.205-2.091-3.44-1.961-5.594c0.15-2.477,0.406-4.963-0.332-7.401c-1.084-3.586-2.648-3.299-4.499-0.535
			c-1.677,1.681-1.457,3.848-1.513,5.923c-0.055,2.021-0.33,3.886-2.464,4.833c-13.177,3.534-26.322,7.278-40.216,5.851
			c-7.127-0.733-14.13-1.97-20.607-5.259c-2.085-2.382-4.804-2.667-7.653-2.098c-3.438,0.688-5.005-0.729-5.003-4.089
			c0.002-2.34-0.499-4.55-1.453-6.658c-1.218-2.677-2.515-2.259-3.568,0.037c-0.914,1.99-0.438,4.201-0.56,6.315
			c-0.104,1.798-0.054,3.616-0.939,5.28c-1.071,1.467-2.424,2.323-4.227,1.466c-1.67-0.794-1.389-2.37-1.36-3.878
			c0.056-2.958,0.366-5.939-0.323-8.865c-0.508-2.156-1.479-4.022-3.656-4.976c-0.42-0.271-0.83-0.557-1.25-0.827
			c-1.2-0.511-2.085-1.347-2.619-2.538c-2.421-4.977-6.105-9.194-8.57-14.148c-2.458-6.055-6.105-11.512-8.289-17.754
			c-4.731-13.519-6.5-27.192-5.254-41.525c1.548-17.808,7.767-33.591,18.506-47.65c10.605-13.884,24.33-23.541,41.05-28.708
			c2.406-0.743,3.192-1.771,3.255-4.108c0.219-8.098-2.449-15.073-7.737-21.143c-1.106-1.269-2.573-1.444-4.016-1.674
			c-1.18-0.188-2.709-0.204-2.713-1.56c-0.002-0.88,1.066-2.049,1.958-2.6c5.174-3.197,10.707-3.157,16.187-1.05
			c1.665,0.64,2.994,1.3,4.574,0.155c1.869-1.354,3.642-1.267,5.435,0.223c0.753,0.625,1.832,1.296,2.695,0.438
			c2.331-2.321,4.314-1.596,6.515,0.232c1.182,0.982,2.765,0.174,3.731-0.479c2.314-1.563,4.391-2.067,6.719-0.161
			c0.471,0.385,1.519,0.783,1.815,0.552c3.436-2.672,6.677-2.105,9.905,0.333c4.256,3.214,6.698,7.546,8.117,12.619
			c1.693,6.053,1.064,12.052-1.408,17.539c-1.596,3.542-0.012,4.29,2.41,5.49c18.389,9.105,31.313,23.432,39.936,41.872
			c0.805,1.722,0.738,3.836,2.334,5.195c2.117,1.483,0.898,4.204,2.219,5.982l-0.018-0.051c4.24,9.244,4.423,19.09,4.625,29.012
			c0.178,8.693-1.867,16.96-3.717,25.302C341.303,167.574,340.905,168.104,340.405,168.557z"/>
		<path fill-rule="evenodd" clip-rule="evenodd" fill="#FBF8F8" d="M341.452,446.683c6.891,12.087,14.781,23.531,22.447,35.123
			c0.969,1.466,3.563,2.917,2.24,4.978c-1.133,1.765-3.666,1.004-5.582,1.003c-66.229-0.031-132.458-0.095-198.686-0.184
			c-6.151-0.008-6.499-0.432-3.385-5.538c5.827-9.555,10.236-19.834,15.547-29.648c0.514-0.95,0.419-2.229,0.606-3.355
			c2.868-5.958,3.569-12.206,3.55-18.819c-0.161-55.295-0.127-110.59-0.03-165.885c0.008-4.806-1.029-8.672-4.838-11.929
			c-2.731-2.335-4.825-5.41-6.025-8.934c-3.145-4.567-6.115-9.273-10.365-12.956c-3.667-3.332-6.58-7.283-8.746-11.686
			c-1.366-2.775,0.328-4.675,4.177-4.729c8.785-0.123,17.572-0.05,26.358-0.031c2,0.004,3.993,0.103,5.623-1.372
			c1.232-0.443,2.395-0.327,3.484,0.416c1.376,1.368,1.62,3.059,1.387,4.881c-0.968,3.938-3.203,5.642-7.514,5.171
			c-4.236-0.462-8.56-0.185-12.84-0.054c-1.217,0.037-3.433-0.568-2.549,2.175c6.192,7,11.82,14.422,17.558,21.75
			c2.857,3.65,6.153,5.491,11.021,5.477c42.468-0.131,84.937-0.204,127.404,0.06c6.37,0.04,9.162-3.667,12.204-7.845
			c5.284-6.357,10.599-12.702,14.165-20.234c-5.09-3.023-10.481-1.158-15.717-0.957c-1.852,0.07-3.893,0.978-4.453-1.454
			c-0.615-2.673-1.314-5.76,0.676-8.058c1.576-1.82,2.308,0.82,3.445,1.404c9.488-0.012,18.978-0.084,28.465,0.021
			c1.825,0.021,4.344-1.057,5.381,1.065c1.057,2.161-1.378,3.559-2.457,5.061c-7.368,10.25-14.912,20.374-22.364,30.564
			c-0.767,1.049-1.3,2.269-1.941,3.409c-0.229,48.66-0.035,97.321-0.097,145.981c-0.013,9.833-0.025,19.665,0.008,29.497
			C339.625,436.327,339.026,441.687,341.452,446.683z"/>
		<path fill-rule="evenodd" clip-rule="evenodd" fill="#6F161A" d="M167.297,243.494c2.506,2.939,4.875,6.014,7.555,8.785
			c3.329,3.443,4.362,7.317,4.351,12.119c-0.145,57.718-0.099,115.437-0.061,173.154c0.003,4.482-1.24,8.358-4.501,11.506
			c4.414-61.633,0.717-123.354,2.008-185.02c0.089-4.263-0.745-7.657-3.964-10.678c-2.262-2.122-3.861-4.957-5.718-7.501
			C166.352,245.021,165.819,244.089,167.297,243.494z"/>
		<path fill-rule="evenodd" clip-rule="evenodd" fill="#69181C" d="M341.452,446.683c-2.629-2.016-3.119-4.766-3.117-7.915
			c0.057-59.403,0.045-118.807,0.088-178.209c0.001-1.713-0.758-3.74,1.273-4.984c1.455,1.926,0.885,4.167,0.885,6.278
			c0.029,57.033,0.013,114.065,0.052,171.099c0.003,3.746-0.769,7.637,1.682,11.095
			C342.893,444.862,342.274,445.968,341.452,446.683z"/>
		<path fill-rule="evenodd" clip-rule="evenodd" fill="#651318" d="M157.824,488.869c68.532,0,137.063,0,205.597,0
			c0.001,0.567,0.002,1.135,0.004,1.702C294.883,490.592,226.342,490.764,157.824,488.869z"/>
		<path fill-rule="evenodd" clip-rule="evenodd" fill="#F4DCDB" d="M332.614,215.452c-1.178,0.191-3.473-1.788-3.008,1.595
			c0.245,1.778-0.395,3.648,0.514,5.437c6.398-1.654,12.877-0.767,19.306-0.755c2.129,0.004,4.2,0.953,2.115,3.77
			c-4.695,0.186-9.366-0.469-14.059-0.42c-2.642,0.028-4.938,0.492-5.567,3.592c-3.67,5.868-5.141,6.518-11.229,4.528
			c-1.556-0.509-2.919-0.411-4.35,0.143c-2.463,0.951-4.955,1-7.236-0.327c-2.213-1.288-4.195-0.104-6.275,0.165
			c-6.433,0.832-10.432-3.592-8.484-9.387c1.745-1.744,1.09-3.976,1.188-6.038c0.094-1.95-0.181-3.993,1.929-5.175
			c2.756,1.771,2.183,4.659,2.076,7.151c-0.158,3.703,1.15,5.988,4.826,6.781c2.936,0.339,4.326-0.764,4.082-3.913
			c-0.204-2.642-0.09-5.314-0.004-7.969c0.052-1.59-0.295-3.473,1.945-4.053c2,1.236,1.167,3.203,1.277,4.93
			c0.205,3.211-0.729,6.555,0.98,9.775c3.49-5.298,2.563-12.164-1.958-15.675c-0.06-0.905,0.368-1.971,1.104-1.937
			c3.246,0.15,4.659-2.496,6.758-4.093c2.605,0.851,5.388-2.016,7.921,0.375C330.827,206.55,331.018,211.377,332.614,215.452z"/>
		<path fill-rule="evenodd" clip-rule="evenodd" fill="#752B2F" d="M184.671,213.583c-0.821,2.489-2.935,1.692-4.619,1.713
			c-8.802,0.106-17.607,0.065-26.408,0.232c-1.665,0.032-3.923-1.064-4.939,0.943c-0.865,1.709,1,2.944,1.848,4.28
			c2.087,3.286,4.246,6.526,6.377,9.786c-3.772-1.417-10.376-9.743-10.213-13.223c0.165-3.529,2.558-4.711,5.769-4.713
			c8.454-0.003,16.911-0.123,25.361,0.048c3.068,0.062,4.824-0.955,6.183-3.749c2.131-4.382,3.905-9.256,10.605-8.489
			c2.794,0.32,2.671-1.918,1.077-3.631c-1.702-1.828-3.703-3.431-3.095-6.354c3.43,4.309,7.408,8.202,9.971,13.168
			c-2.539,4.493-3.567,4.868-7.499,1.929c-2.806-2.098-4.608-1.85-6.365,1.256C187.428,209.07,186.732,211.745,184.671,213.583z"/>
		<path fill-rule="evenodd" clip-rule="evenodd" fill="#7B2E31" d="M340.405,168.557c3.137-12.642,3.908-25.447,3.295-38.446
			c-0.285-6.048-2.715-11.574-3.156-17.515c3.13,0.907,3.417,4.448,3.703,6.243c1.256,7.873,2.406,15.791,2.39,23.876
			c-0.017,8.159-2.747,15.668-4.07,23.498C342.34,167.546,341.713,168.318,340.405,168.557z"/>
		<path fill-rule="evenodd" clip-rule="evenodd" fill="#805054" d="M326.466,203.953c-2.091-0.511-4.003-0.122-5.469,1.46
			c-0.864,0.933-1.519,2.861-2.865,2.06c-1.815-1.081,0.13-2.574,0.413-3.896c1.322-1.157,2.646-2.315,3.97-3.477
			C322.413,202.839,325.955,201.843,326.466,203.953z"/>
		<path fill-rule="evenodd" clip-rule="evenodd" fill="#7B2E31" d="M340.561,112.646c-1.18-1.83-2.055-3.773-2.219-5.981
			C341.947,107.596,340.34,110.46,340.561,112.646z"/>
		<path fill-rule="evenodd" clip-rule="evenodd" fill="#901419" d="M294.34,223.792c1.424,8.032,4.949,9.831,11.488,5.552
			c2.031-1.33,2.435,0.369,2.988,1.151c2.393,3.381,5.494,2.45,7.721,0.632c2.051-1.675,2.385-2.349,4.591,0.111
			c4.157,4.636,6.704-0.128,9.441-2.643c1.329-3.043,3.745-4.415,6.976-4.471c2.676-0.046,5.319,0.021,7.079,2.565
			c1.932,2.794,0.296,4.981-1.169,7.209c-2.338,3.556-5.063,6.863-6.863,10.762c-3.137,6.604-7.186,10.378-15.676,10.277
			c-42.781-0.508-85.573-0.272-128.359-0.162c-3.651,0.009-6.059-0.933-8.386-3.944c-6.673-8.632-13.783-16.926-20.722-25.354
			c-0.966-2.609,0.844-2.826,2.594-2.856c5.311-0.091,10.624-0.004,15.936-0.042c2.963-0.021,4.448,1.787,5.628,4.14
			c1.858,3.704,4.062,6.045,8.464,2.902c1.852-1.321,4.079-0.814,6.096,0.461c2.021,1.279,4.179,1.422,5.755-0.721
			c2.323-3.156,4.366-2.576,6.942-0.168c2.965,2.772,4.92,2.319,6.646-0.997c3.193-6.136,5.784-7.052,13.066-4.621
			c12.742,5.468,25.955,5.945,39.514,4.185C280.952,226.87,287.092,222.51,294.34,223.792z"/>
		<path fill-rule="evenodd" clip-rule="evenodd" fill="#901417" d="M297.803,132.636c-2.379,10.283-5.752,19.906-16.465,24.601
			c-0.893,0.391-1.866,0.698-2.83,0.813c-6.045,0.72-8.143-1.29-8.963-8.482c-2.135-1.345-1.009-3.65-1.623-5.432
			c-0.859-2.495-1.632-5.079-3.014-7.317c-1.082-1.754-2.187-4.07-4.679-3.96c-2.558,0.112-3.821,2.259-5.021,4.279
			c-2.41,4.06-2.667,8.708-3.505,13.164c-0.533,2.834-1.528,5.009-4.26,6.161c-12.429,2.178-18.032-1.715-23.242-14.147
			c-7.271-17.353-7.025-35.284,2.503-52.152c7.559-13.382,21.85-13.39,29.783-0.307c2.928,4.829,2.934,4.833,5.938,0.449
			c8.676-12.659,21.131-13.229,29.927,1.566c2.471,4.157,4.811,8.646,5.409,13.678C299.723,114.575,299.918,123.604,297.803,132.636
			z"/>
		<path fill-rule="evenodd" clip-rule="evenodd" fill="#F7E7E8" d="M234.577,223.576c-1.655-0.063-3.318-0.054-4.965-0.206
			c-3.144-0.291-5.056,0.319-6.091,4.029c-1.767,6.332-6.279,7.062-10.503,2.001c-1.508-1.807-2.135-1.89-3.499,0.05
			c-3.237,4.604-4.651,4.863-8.788,1.368c-1.542-1.303-2.569-0.797-3.815-0.059c-5.324,3.154-8.462,2.416-10.825-3.381
			c-1.289-3.161-2.841-4.278-6.19-4.055c-4.63,0.309-9.296,0.085-13.946,0.079c-1.424-0.002-2.743,0.089-2.501,2.076
			c-1.815-3.151-1.623-3.743,2.001-3.856c5.62-0.176,11.283-0.409,16.86,0.108c3.016,0.279,4.182-0.853,5.13-3.145
			c2.515,1.165,1.898,4.065,3.258,5.896c1.186,1.597,2.03,1.935,3.305,0.037c2.188-3.254,2.047-11.236-0.286-14.278
			c-1.093-1.426-1.804-0.986-2.669,0.109c-1.009,1.277-1.738,2.88-3.588,3.226c-0.931,0.003-1.862,0.005-2.792,0.007
			c-0.166-3.357,1.374-6.186,3.272-8.659c1.872-2.44,4.97-3.76,7.285-1.223c2.906,3.184,4.945,2.425,7.36-0.105
			c0.208,1.088,0.852,1.762,1.926,2.026c1.091,2.271-0.194,4.193-0.922,6.188c-1.835,5.034-1.322,10.123,1.858,14.05
			c1.788-5.372,1.353-10.373,0.55-15.355c-0.26-1.617-1.168-3.141-0.414-4.837c4.547,0.984,4.303,5.031,4.882,8.229
			c0.493,2.723,0.167,5.623-0.01,8.432c-0.272,4.328,1.477,2.613,3.208,1.162c1.908-0.575,2.701,1.657,4.371,1.865
			c1.729-2.581,1.43-5.418,1.565-8.187c0.11-2.26-0.368-4.707,1.723-6.449c2.489,1.889,1.323,4.593,1.301,6.89
			c-0.031,3.238,0.366,4.874,4.343,4.105C229.463,221.232,232.679,220.444,234.577,223.576z"/>
		<path fill-rule="evenodd" clip-rule="evenodd" fill="#8A161B" d="M266.719,162.585c0.031,2.229-1.284,4.033-1.905,6.056
			c-0.712,2.322-1.853,4.523-4.414,4.803c-2.472,0.269-3.575-1.797-4.427-3.854c-0.304-0.735-0.873-1.36-1.321-2.036
			c-2.568-10.137-4.603-20.248,0.487-30.284c1.059-2.087,2.402-3.621,4.822-3.734c2.479-0.116,4.059,1.423,5.035,3.444
			c1.945,4.029,3.871,8.038,2.793,12.831C266.85,153.988,268.563,158.442,266.719,162.585z"/>
		<path fill-rule="evenodd" clip-rule="evenodd" fill="#F4D5D9" d="M266.719,162.585c-0.385-7.511,1.281-15.204-2.002-22.455
			c-1.009-2.228-1.76-5.054-4.656-5.135c-2.785-0.078-3.48,2.727-4.316,4.783c-3.161,7.77-2.711,15.837-1.579,23.905
			c0.181,1.288,0.819,2.512,0.486,3.869c-2.792-1.473-2.166-4.182-2.094-6.484c0.118-3.771-0.527-6.258-5.115-4.605
			c4.064-3.637,2.317-8.993,3.819-13.424c0.893-2.633,1.599-5.345,3.003-7.727c3.334-5.654,8.911-5.768,11.885,0.017
			c2.24,4.358,4.336,9.005,3.395,14.238c-1.57,2.712-0.56,5.702-0.916,8.545C268.417,159.794,269.057,161.819,266.719,162.585z"/>
		<path fill-rule="evenodd" clip-rule="evenodd" fill="#7B1E21" d="M205.587,205.668c5.239,6.377,3.847,13.506,2.353,20.651
			c-0.338,1.617-1.242,2.802-2.922,2.735c-1.408-0.055-2.05-1.136-2.615-2.534c-2.983-7.385-2.645-14.342,2.113-20.898
			C204.873,205.638,205.23,205.653,205.587,205.668z"/>
		<path fill-rule="evenodd" clip-rule="evenodd" fill="#762429" d="M221.326,210.721c0.234,4.801,0.568,9.598-0.498,14.362
			c-0.407,1.819-0.668,3.773-2.987,3.9c-2.307,0.126-2.099-2.073-2.771-3.458c-0.356-0.732-0.929-1.36-1.404-2.035
			c0.052-3.623-0.104-7.267,0.232-10.863c0.203-2.17,1.146-4.515,3.433-5.267C220.021,206.476,220.043,209.509,221.326,210.721z"/>
		<path fill-rule="evenodd" clip-rule="evenodd" fill="#821D21" d="M304.36,226.512c-3.724,2.764-6.125,1.938-6.682-2.704
			c-0.443-3.698-0.174-7.483-0.221-11.229c0.582-1.98,1.674-3.98,3.78-3.904c2.488,0.09,3.204,2.576,3.716,4.636
			C306.055,217.743,305.856,222.17,304.36,226.512z"/>
		<path fill-rule="evenodd" clip-rule="evenodd" fill="#7C2022" d="M310.683,209.607c2.614-1.57,4.296-1.763,5.286,2.015
			c1.354,5.161,1.207,10.069-0.329,15.092c-0.402,1.315-1.106,2.164-2.321,2.17c-1.345,0.007-2.166-0.715-2.756-2.235
			c-2.096-5.392-1.392-10.704-0.18-16.071C310.483,210.254,310.583,209.931,310.683,209.607z"/>
		<path fill-rule="evenodd" clip-rule="evenodd" fill="#E1BBB9" d="M297.803,132.636c1.45-9.031,1.252-18.06-0.042-27.086
			c2.069,2.091,2.022,4.775,2.03,7.42c0.016,4.955,0.006,9.911-0.057,14.865C299.712,129.651,299.665,131.527,297.803,132.636z"/>
		<path fill-rule="evenodd" clip-rule="evenodd" fill="#901418" d="M298.079,263.405c9.766-1.291,19.574-0.268,29.359-0.55
			c2.018-0.059,3.083,0.947,2.875,3.094c-0.081,0.825-0.011,1.665-0.011,2.499c-0.006,55.496-0.062,110.993,0.081,166.489
			c0.01,4.301-0.891,5.898-5.453,5.628c-6.81-0.404-13.67-0.325-20.489-0.021c-3.886,0.173-5.041-0.92-5.056-4.936
			c-0.108-29.163-0.326-58.328-0.832-87.487c-0.344-19.822-1.021-39.638-0.678-59.467c0.498-6.969,0.217-13.949,0.162-20.921
			c-0.021-2.801,0.811-3.777,3.67-3.706c6.809,0.17,13.625,0.068,18.965,0.053C314.133,263.479,306.063,265.055,298.079,263.405z"/>
		<path fill-rule="evenodd" clip-rule="evenodd" fill="#901418" d="M331.743,448.815c3.084,1.589,3.994,4.877,5.586,7.527
			c3.897,6.486,8.863,12.296,12.1,19.19c-0.146,2.424-1.43,3.602-3.861,3.548c-0.83-0.019-1.662,0.001-2.494,0.001
			c-54.7,0-109.401,0.001-164.102-0.004c-1.163,0-2.353,0.171-3.482-0.099c-2.382-0.566-4.022-1.708-2.923-4.555
			c3.617-8.139,7.021-16.384,11.917-23.885c2.509-1.171,5.188-0.956,7.838-0.956c44.191-0.002,88.383,0.006,132.573-0.02
			C327.189,449.563,329.565,450.009,331.743,448.815z"/>
		<path fill-rule="evenodd" clip-rule="evenodd" fill="#911418" d="M289.72,335.299c1.141,5.919,0.677,11.918,0.746,17.874
			c0.187,16.111,0.136,32.226,0.178,48.338c-2.133,7.558-0.607,15.181-0.198,22.748c0.219,4.033-0.418,7.957-0.468,11.94
			c-0.036,2.799-2.179,3.378-4.584,3.378c-5.162-0.002-10.325,0.061-15.487-0.017c-5.353-0.079-6.771-1.493-6.791-6.896
			c-0.051-14.488,0.625-29.011-0.146-43.457c-1.835-34.428-0.207-68.861-0.94-103.281c-0.123-5.813-0.408-11.626-0.439-17.447
			c-0.018-3.307,1.367-4.927,4.766-4.898c5.328,0.045,10.658,0.068,15.986-0.009c4.01-0.058,5.703,1.863,5.777,5.772
			c0.128,6.816,0.219,13.641,0.308,20.45c0.419,32.083,1.097,64.17,0.503,96.259c-0.063,0.667,0.99-0.328,0.396-0.026
			c-0.145,0.074-0.231-0.073-0.231-0.442c0.011-15.818-0.004-31.638,0.013-47.456C289.108,337.152,288.911,336.11,289.72,335.299z"
			/>
		<path fill-rule="evenodd" clip-rule="evenodd" fill="#732225" d="M253.742,351.595c0,27.828-0.099,55.657,0.103,83.484
			c0.032,4.391-1.072,5.802-5.536,5.5c-6.137-0.413-12.339-0.354-18.485-0.006c-4.315,0.245-5.731-0.999-5.729-5.508
			c0.015-35.992-0.245-71.985-0.382-107.979c-0.075-19.664,0.023-39.329-0.188-58.99c-0.042-3.958,0.77-5.66,5.145-5.395
			c6.309,0.383,12.667,0.288,18.988,0.025c3.454-0.144,4.404,0.87,4.53,4.398C253.195,295.275,253.153,323.437,253.742,351.595z"/>
		<path fill-rule="evenodd" clip-rule="evenodd" fill="#6D1F22" d="M289.72,335.299c0,18.92,0,37.841,0,56.761
			c-0.37,0.001-0.741,0.001-1.111,0.001c0-1.623,0.001-3.246,0-4.87c-0.012-17.493,0.224-34.992-0.099-52.48
			c-0.398-21.603-1.285-43.195-1.896-64.795c-0.104-3.673-1.504-5.55-5.436-5.359c-3.99,0.193-7.995,0.036-11.994,0.056
			c-6.301,0.032-6.559,0.255-6.564,6.407c-0.018,15.994,0.001,31.988,0.006,47.983c0.004,14.494-0.727,29.036,0.182,43.474
			c1.478,23.525,1.951,47.042,1.792,70.59c-0.025,3.74,1.714,5.52,5.468,5.479c4.83-0.052,9.666-0.108,14.492,0.04
			c3.066,0.094,3.68-1.343,4.158-4.151c1.359-7.988-0.791-15.88-0.154-23.824c0.254-3.168,0.365-6.295,2.081-9.097
			c0.216,11.972,0.397,23.944,0.673,35.915c0.056,2.392-0.828,3.134-3.216,3.088c-7.323-0.14-14.664-0.307-21.973,0.054
			c-4.2,0.207-4.425-1.73-4.429-5.037c-0.04-37.13-0.155-74.26-0.354-111.389c-0.1-18.81,0.159-37.629-0.865-56.423
			c-0.196-3.608,0.858-5.107,4.736-4.951c6.815,0.276,13.65,0.084,20.477,0.06c2.143-0.008,3.842,0.068,3.84,3.086
			C289.525,289.042,289.642,312.17,289.72,335.299z"/>
		<path fill-rule="evenodd" clip-rule="evenodd" fill="#661E20" d="M187.205,351.531c-0.007-27.978,0.057-55.956-0.085-83.934
			c-0.019-3.63,0.777-5.012,4.663-4.81c6.311,0.328,12.656,0.21,18.979,0.008c3.443-0.11,4.887,0.615,4.885,4.603
			c-0.027,56.121,0.083,112.243,0.365,168.364c0.021,4.233-1.409,4.928-5.087,4.772c-6.317-0.268-12.673-0.387-18.975,0.021
			c-4.242,0.273-4.828-1.414-4.81-5.091C187.271,407.487,187.211,379.509,187.205,351.531z"/>
		<path fill-rule="evenodd" clip-rule="evenodd" fill="#591214" d="M331.743,448.815c-1.407,2.891-4.082,1.737-6.207,1.74
			c-43.763,0.063-87.526,0.073-131.289-0.025c-3.253-0.007-6.515,0.991-9.765,0.009c-0.273-2.083,1.159-1.975,2.525-1.972
			c2.829,0.006,5.657-0.001,8.486-0.001c43.928-0.001,87.857-0.003,131.785,0.011C328.766,448.577,330.254,448.732,331.743,448.815z
			"/>
		<path fill-rule="evenodd" clip-rule="evenodd" fill="#4C1F24" d="M172.565,474.425c0.754,4.335,4.058,4.166,7.301,4.165
			c22.968-0.011,45.937-0.004,68.905-0.015c31.124-0.014,62.248-0.05,93.372-0.036c2.9,0.001,5.733,0.131,7.286-3.005
			c0.648,1.23,2.842,1.905,1.927,3.608c-0.692,1.29-2.434,0.523-3.681,0.523c-58.518,0.011-117.035-0.018-175.553-0.048
			c-0.653-0.001-1.307-0.091-2.146-0.152C169.929,477.245,171.389,475.903,172.565,474.425z"/>
		<path fill-rule="evenodd" clip-rule="evenodd" fill="#802327" d="M187.464,213.576c0.127-0.479,0.137-1.038,0.4-1.426
			c1.476-2.184,1.471-6.299,4.715-6.113c3.196,0.183,3.723,4.144,4.222,6.632c0.932,4.641,1.031,9.464-1.332,13.958
			c-0.854,1.622-2.262,2.603-3.779,2.783c-1.525,0.182-1.561-1.807-2.318-2.796c-1.861-2.431-1.729-5.249-1.929-8.027
			C187.451,216.917,187.458,215.247,187.464,213.576z"/>
		<path fill-rule="evenodd" clip-rule="evenodd" fill="#792426" d="M336.592,244.661c-0.385-3.44,2.059-5.737,3.623-8.271
			c1.974-3.195,6.132-6.01,1.984-9.963c-3.711-3.537-7.209-1.354-10.27,1.642c-0.319,0.313-0.9,0.357-1.36,0.526
			c-0.224-3.682,1.248-5.399,5.185-5.151c4.238,0.268,8.506,0.042,12.76,0.062c1.412,0.007,3.135-0.363,3.025,1.993
			c-4.301,5.702-8.59,11.413-12.916,17.097C338.043,243.357,337.274,243.977,336.592,244.661z"/>
		<path fill-rule="evenodd" clip-rule="evenodd" fill="#5C1112" d="M298.079,263.405c8.801,0.096,17.602,0.181,26.401,0.293
			c1.864,0.024,4.146-0.381,3.701,3.722c-2.161-2.797-4.599-2.928-7.204-2.865c-5.315,0.128-10.658,0.346-15.946-0.046
			c-4.937-0.366-6.788,1.104-6.597,6.316c0.219,5.916,0.967,11.934-0.559,17.828C297.733,280.236,297.196,271.815,298.079,263.405z"
			/>
		<path fill-rule="evenodd" clip-rule="evenodd" fill="#7E262C" d="M320.7,211.743c0.547-0.812,1.188-1.575,1.624-2.442
			c1.522-3.021,3.448-2.654,4.573-0.06c2.535,5.846,2.524,11.944-0.057,17.777c-1.175,2.655-3.055,2.917-4.527-0.123
			c-0.42-0.868-1.094-1.613-1.65-2.414C318.245,220.229,318.186,215.981,320.7,211.743z"/>
		<path fill-rule="evenodd" clip-rule="evenodd" fill="#FEFEFE" d="M320.7,211.743c-0.014,4.246-0.025,8.492-0.037,12.738
			c-0.657,0.82,1.153,2.559-0.908,2.752c-1.117,0.105-1.804-0.912-1.846-1.957c-0.193-4.787-0.301-9.578-0.407-14.368
			c-0.018-0.793,0.522-1.135,1.284-1.129C320.083,209.789,320.291,210.864,320.7,211.743z"/>
		<path fill-rule="evenodd" clip-rule="evenodd" fill="#F8F7F7" d="M248.324,99.493c2.464-2.513,4.901-2.408,7.315,0.072
			c3.881,1.144,5.912,5.127,9.716,6.471c1.503-1.792,0.05-2.739-0.878-3.817c-1.418-1.647-1.796-3.19,0.456-4.465
			c7.361-1.883,9.753,3.941,11.22,11.748c0.781,4.159-0.78,7.999-2.484,11.875c-2.392,5.438-7.551,6.163-11.432,0.746
			c-0.758-1.058-0.218-2.7-1.684-3.381c-1.959,0.728-2.297,2.77-3.43,4.115c-3.347,3.978-7.457,3.933-10.604-0.226
			c-3.887-5.135-3.066-10.983-2.716-16.778c1.374-1.054,2.371,0.452,3.586,0.505c1.034,0.338,2.07,0.472,3.109,0.081
			c1.592-0.849,1.158-1.779,0.114-2.73c-0.947-0.877-1.923-1.728-2.47-2.938C248.09,100.329,248.156,99.904,248.324,99.493z"/>
		<path fill-rule="evenodd" clip-rule="evenodd" fill="#7D2E30" d="M264.933,97.754c0.454,0.886-3.13,2.359,0.521,2.866
			c2.964,0.412,3.253,2.879,3.174,5.308c-0.053,1.646-0.84,2.912-2.504,3.294c-1.429,0.327-2.397-0.414-3.337-1.562
			c-2.28-2.782-4.753-5.406-7.147-8.095c0.629-0.178,1.584-0.71,1.834-0.479c2.685,2.48,4.497,2.12,5.662-1.414
			C263.186,97.519,264.309,97.719,264.933,97.754z"/>
		<path fill-rule="evenodd" clip-rule="evenodd" fill="#C0746F" d="M246.548,107.646c-0.915-0.598-1.829-1.195-2.744-1.793
			c0.183-3.061,1.351-5.423,4.521-6.36c0.093,0.312,0.186,0.624,0.279,0.936C249.683,103.337,248.993,105.741,246.548,107.646z"/>
		<path fill-rule="evenodd" clip-rule="evenodd" fill="#901418" d="M226.588,353.38c0-25.652,0.003-51.305-0.005-76.957
			c0-2.313,0.012-4.536-1.149-6.775c-1.763-3.401-0.045-5.003,3.463-5.023c5.663-0.031,11.328,0.059,16.99-0.037
			c3.215-0.055,4.527,1.593,4.643,4.55c0.059,1.497,0.048,2.997,0.048,4.496c0.015,46.474,0.053,92.947,0.01,139.421
			c-0.006,6.162,1.523,12.203,1.047,18.4c-0.362,4.712-2.323,7.136-7.09,7.002c-4.718-0.133-9.397,0.773-14.209-1.305
			c-3.224-1.392-3.772-2.893-3.765-5.815c0.061-25.985,0.036-51.971,0.036-77.956C226.601,353.38,226.595,353.38,226.588,353.38z"/>
		<path fill-rule="evenodd" clip-rule="evenodd" fill="#8F1319" d="M188.615,350.419c0.006-26.64,0.097-53.279-0.082-79.917
			c-0.03-4.506,1.181-6.389,5.884-5.968c3.964,0.355,7.985,0.066,11.981,0.074c5.806,0.012,8.195,2.021,8.086,7.92
			c-0.288,15.622-0.089,31.243-0.536,46.876c-0.504,17.694-0.658,35.457,0.283,53.231c1.063,20.09,0.303,40.277,0.261,60.423
			c-0.008,3.676-1.518,5.874-5.8,5.562c-4.306-0.314-8.653-0.04-12.981-0.079c-5.483-0.049-7.028-1.537-7.068-7.206
			c-0.08-11.154-0.033-22.311-0.035-33.465C188.607,382.053,188.608,366.235,188.615,350.419z"/>
		<path fill-rule="evenodd" clip-rule="evenodd" fill="#702221" d="M246.548,107.646c0.02-2.596,0.067-5.184,2.056-7.218
			c1.431,0.156,2.321,1.126,3.195,2.121c1.141,2.052,0.984,4.06-0.199,6.034C249.748,109.176,247.839,110.074,246.548,107.646z"/>
		<path fill-rule="evenodd" clip-rule="evenodd" fill="#F2D0D0" d="M251.599,108.584c0.066-2.011,0.133-4.022,0.199-6.034
			C254.961,104.668,253.906,106.646,251.599,108.584z"/>
	</g>
</g>
</svg>
