<?xml version="1.0" encoding="utf-8"?>
<!-- Generator: Adobe Illustrator 16.0.0, SVG Export Plug-In . SVG Version: 6.00 Build 0)  -->
<!DOCTYPE svg PUBLIC "-//W3C//DTD SVG 1.1//EN" "http://www.w3.org/Graphics/SVG/1.1/DTD/svg11.dtd">
<svg version="1.1" id="Layer_1" xmlns="http://www.w3.org/2000/svg" xmlns:xlink="http://www.w3.org/1999/xlink" x="0px" y="0px"
	 width="297.638px" height="48.305px" viewBox="0 0 297.638 48.305" enable-background="new 0 0 297.638 48.305"
	 xml:space="preserve">
<polygon fill="#019BA8" points="119.1,0 94.947,24.151 119.099,48.305 132.519,48.305 108.366,24.151 132.52,0 "/>
<rect x="49.735" y="19.18" fill="#6A6869" width="35.267" height="9.943"/>
<rect fill="#6A6869" width="85" height="9.943"/>
<rect x="49.736" y="38.359" fill="#6A6869" width="35.266" height="9.946"/>
<rect x="19.887" y="19.179" fill="#6A6869" width="9.947" height="29.126"/>
<polygon fill="#6A6869" points="159.313,6.828 159.313,20.095 157.746,20.095 157.746,6.828 153.503,6.828 153.503,5.428 
	163.557,5.428 163.557,6.828 "/>
<polygon fill="#6A6869" points="166.938,20.094 166.938,5.427 176.044,5.427 176.044,6.827 168.504,6.827 168.504,11.998 
	174.932,11.998 174.932,13.399 168.504,13.399 168.504,18.694 176.044,18.694 176.044,20.094 "/>
<polygon fill="#6A6869" points="188.806,20.094 184.336,12.286 181.245,15.994 181.245,20.094 179.68,20.094 179.68,5.427 
	181.245,5.427 181.245,13.852 188.084,5.427 190,5.427 185.386,11.091 190.66,20.094 "/>
<polygon fill="#6A6869" points="203.241,20.094 195.455,8.331 195.455,20.094 193.89,20.094 193.89,5.427 195.373,5.427 
	203.159,17.149 203.159,5.427 204.726,5.427 204.726,20.094 "/>
<rect x="209.143" y="5.427" fill="#6A6869" width="1.566" height="14.667"/>
<rect x="215.127" y="5.427" fill="#6A6869" width="1.566" height="14.667"/>
<polygon fill="#6A6869" points="230.237,20.094 225.767,12.286 222.677,15.994 222.677,20.094 221.11,20.094 221.11,5.427 
	222.677,5.427 222.677,13.852 229.516,5.427 231.432,5.427 226.817,11.091 232.091,20.094 "/>
<path fill="#6A6869" d="M244.819,20.094l-1.175-3.317h-6.406l-1.174,3.317h-1.668l5.397-14.667h1.317l5.377,14.667H244.819z
	 M240.473,7.672l-2.761,7.746h5.48L240.473,7.672z"/>
<polygon fill="#6A6869" points="259.05,20.094 251.264,8.331 251.264,20.094 249.697,20.094 249.697,5.427 251.181,5.427 
	258.967,17.149 258.967,5.427 260.533,5.427 260.533,20.094 "/>
<path fill="#6A6869" d="M163.557,42.754l-1.175-3.317h-6.406l-1.174,3.317h-1.669l5.397-14.668h1.317l5.378,14.668H163.557z
	 M159.209,30.333l-2.76,7.745h5.479L159.209,30.333z"/>
<polygon fill="#6A6869" points="177.56,42.754 173.09,34.947 170,38.655 170,42.754 168.434,42.754 168.434,28.086 170,28.086 
	170,36.512 176.839,28.086 178.755,28.086 174.14,33.751 179.414,42.754 "/>
<path fill="#6A6869" d="M192.143,42.754l-1.175-3.317h-6.406l-1.174,3.317h-1.669l5.397-14.668h1.318l5.377,14.668H192.143z
	 M187.796,30.333l-2.761,7.745h5.48L187.796,30.333z"/>
<polygon fill="#6A6869" points="199.938,29.488 199.938,42.754 198.371,42.754 198.371,29.488 194.128,29.488 194.128,28.086 
	204.181,28.086 204.181,29.488 "/>
<polygon fill="#6A6869" points="207.563,42.754 207.563,28.086 216.669,28.086 216.669,29.488 209.129,29.488 209.129,34.659 
	215.557,34.659 215.557,36.059 209.129,36.059 209.129,41.354 216.669,41.354 216.669,42.754 "/>
<polygon fill="#6A6869" points="220.304,42.754 220.304,28.086 229.41,28.086 229.41,29.488 221.87,29.488 221.87,34.659 
	228.298,34.659 228.298,36.059 221.87,36.059 221.87,41.354 229.41,41.354 229.41,42.754 "/>
<polygon fill="#6A6869" points="244.046,42.754 244.046,31.61 240.029,40.447 238.69,40.447 234.611,31.61 234.611,42.754 
	233.045,42.754 233.045,28.086 234.611,28.086 239.391,38.49 244.046,28.086 245.611,28.086 245.611,42.754 "/>
<rect x="250.04" y="28.086" fill="#6A6869" width="1.566" height="14.668"/>
<g>
	<defs>
		<rect id="SVGID_1_" width="297.638" height="48.305"/>
	</defs>
	<clipPath id="SVGID_2_">
		<use xlink:href="#SVGID_1_"  overflow="visible"/>
	</clipPath>
	<path clip-path="url(#SVGID_2_)" fill="#6A6869" d="M265.193,38.716c0,0.646-0.119,1.226-0.36,1.741
		c-0.24,0.515-0.58,0.951-1.02,1.308c-0.439,0.357-0.972,0.632-1.597,0.824c-0.624,0.192-1.321,0.289-2.091,0.289
		c-0.549,0-1.054-0.039-1.514-0.114c-0.461-0.075-0.894-0.188-1.298-0.34c-0.405-0.151-0.786-0.35-1.143-0.597
		c-0.358-0.248-0.707-0.543-1.051-0.886l1.051-1.051c0.604,0.604,1.214,1.02,1.832,1.246c0.618,0.226,1.34,0.34,2.163,0.34
		c1.086,0,1.937-0.237,2.555-0.711s0.927-1.144,0.927-2.008c0-0.797-0.24-1.408-0.72-1.834c-0.111-0.096-0.225-0.182-0.341-0.258
		c-0.117-0.074-0.247-0.14-0.391-0.195c-0.146-0.055-0.313-0.104-0.505-0.145c-0.193-0.041-0.42-0.082-0.681-0.123l-1.71-0.247
		c-1.153-0.18-2.045-0.55-2.677-1.113c-0.756-0.672-1.134-1.593-1.134-2.76c0-0.618,0.109-1.182,0.33-1.689
		c0.219-0.508,0.531-0.943,0.938-1.308c0.404-0.364,0.896-0.642,1.472-0.835c0.578-0.191,1.229-0.288,1.958-0.288
		c0.934,0,1.737,0.131,2.41,0.392s1.323,0.666,1.956,1.215l-1.008,1.01c-0.44-0.426-0.929-0.744-1.464-0.958
		c-0.536-0.213-1.188-0.319-1.957-0.319c-0.989,0-1.754,0.251-2.297,0.752s-0.813,1.164-0.813,1.988c0,0.755,0.22,1.325,0.659,1.709
		c0.233,0.193,0.515,0.351,0.845,0.475c0.33,0.123,0.687,0.219,1.071,0.288l1.71,0.268c0.672,0.11,1.201,0.237,1.586,0.381
		c0.385,0.145,0.741,0.368,1.071,0.67c0.397,0.344,0.703,0.756,0.917,1.235C265.086,37.549,265.193,38.098,265.193,38.716"/>
	<polygon clip-path="url(#SVGID_2_)" fill="#6A6869" points="268.84,42.754 268.84,28.086 277.944,28.086 277.944,29.488 
		270.406,29.488 270.406,34.659 276.833,34.659 276.833,36.059 270.406,36.059 270.406,41.354 277.944,41.354 277.944,42.754 	"/>
	<polygon clip-path="url(#SVGID_2_)" fill="#6A6869" points="286.648,29.488 286.648,42.754 285.082,42.754 285.082,29.488 
		280.838,29.488 280.838,28.086 290.893,28.086 290.893,29.488 	"/>
</g>
</svg>
