<?xml version="1.0" encoding="utf-8"?>
<!-- Generator: Adobe Illustrator 16.0.0, SVG Export Plug-In . SVG Version: 6.00 Build 0)  -->
<!DOCTYPE svg PUBLIC "-//W3C//DTD SVG 1.1//EN" "http://www.w3.org/Graphics/SVG/1.1/DTD/svg11.dtd">
<svg version="1.1" id="Layer_1" xmlns="http://www.w3.org/2000/svg" xmlns:xlink="http://www.w3.org/1999/xlink" x="0px" y="0px"
	 width="651.968px" height="651.969px" viewBox="0 0 651.968 651.969" enable-background="new 0 0 651.968 651.969"
	 xml:space="preserve">
<g>
	<g>
		<path d="M406.271,397.401c-3.053,2.554-4.949,4.846-7.385,6.007c-3.508,1.674-7.352,2.837-11.176,3.558
			c-1.318,0.249-3.6-1.136-4.332-2.411c-0.516-0.899,0.52-3.117,1.428-4.314c1.672-2.201,3.76-4.085,5.613-6.038
			c-4.072-5.15-8.525-6.173-14.301-2.981c-4.061,2.242-7.871,4.997-11.578,7.806c-6.111,4.627-12.75,5.742-19.791,3.005
			c-6.037-2.351-11.852-5.271-17.785-7.891c-8.434-3.725-11.528-1.744-11.27,7.41c0.111,3.985,0.813,7.951,1.077,11.938
			c0.549,8.229-2.59,11.512-10.541,9.861c-7.139-1.479-14.03-4.136-21.058-6.187c-3.495-1.021-7.046-1.848-10.542-2.755
			c-6.987,9.3-12.274,19.042-14.515,30.147c-1.272,6.307-2.211,12.659,3.116,18.128c2.789,2.862,0.7,8.245-3.95,10.584
			c-6.362,3.201-13.21,3.512-19.989,1.874c-20.151-4.864-37.539-14.905-52.705-28.906c-1.163-1.073-1.983-2.517-2.43-3.097
			c-7.17,8.17-13.927,16.86-21.766,24.434c-4.772,4.608-11.096,7.695-16.97,11.03c-1.865,1.06-4.547,1.063-6.821,0.935
			c-4.616-0.261-7.592-4.617-5.632-8.775c3.263-6.923,0.344-12.935-3.019-18.162c-5.54-8.609-13.162-15.383-22.51-20.016
			c-6.716-3.328-8.391-10.185-4.134-16.564c2.217-3.321,4.758-6.432,6.915-9.788c1.868-2.909,2.359-5.9-0.962-8.341
			c-11.724-8.611-14.833-21.425-16.981-34.73c-0.462-2.863-1.221-5.68-1.979-9.137c-11.947,15.834-23.847,15.068-33.534,10.563
			c-10.741-4.998-15.571-16.544-13.138-31.941c-4.102,2.938-7.861,5.91-11.898,8.439c-3.904,2.445-8.095,4.434-12.548,5.971
			c4.517-3.312,9.253-6.367,13.49-10.006c4.282-3.675,8.248-7.766,12.025-11.968c3.89-4.326,7.231-9.144,11.086-13.504
			c8.682-9.822,17.53-19.498,26.325-29.221c0.548-0.606,1.285-1.049,1.794-1.68c0.278-0.345,0.264-0.927,0.501-1.886
			c-7.31-0.233-13.609-2.602-17.868-8.754c-5.132-7.414-7.83-15.614-7.543-24.693c0.157-4.976,3.179-8.229,7.472-9.533
			c4.211-1.278,8.657-0.734,11.666,3.351c2.724,3.698,4.044,7.577,1.368,11.937c-2.862,4.66-8.721,5.585-10.714,1.522
			c-0.641-1.306-0.723-3.295-0.199-4.634c0.424-1.084,2.143-1.66,3.288-2.462c0.709,1.133,1.669,2.189,2.048,3.424
			c0.303,0.985-0.101,2.188-0.21,3.523c4.451-1.98,5.415-5.673,3.931-9.407c-1.351-3.397-4.221-6.088-8.533-5.56
			c-4.163,0.51-7.258,3.896-7.111,8.242c0.569,16.814,12.869,32.427,34.286,26.808c12.49-3.276,15.976-15.854,14.285-27.089
			c-0.97-6.445-3.379-12.187-10.334-14.49c-4.343-1.438-8.366-0.386-11.471,2.669c-3.658,3.598-3.11,8.395-1.345,12.511
			c1.045,2.438,3.906,4.097,5.95,6.104c0.327-0.358,0.654-0.717,0.981-1.075c-0.82-1.474-2.232-2.916-2.313-4.43
			c-0.104-1.948,0.86-3.952,1.363-5.933c2.051,0.646,5.379,0.777,5.887,2.042c1.054,2.624,1.784,6.665,0.443,8.59
			c-1.271,1.827-5.61,2.8-8.151,2.211c-6.526-1.511-9.597-8.331-8.578-16.972c0.674-5.715,5.168-9.482,12.193-10.22
			c8.748-0.919,16.846,5.545,17.767,14.379c0.457,4.375,0.547,8.788,0.803,13.185c0.42,0.042,0.84,0.084,1.26,0.125
			c0.499-6.003,1.557-12.036,1.229-17.994c-0.138-2.516-2.66-5.815-5.012-7.149c-20.009-11.355-32.315-28.159-37.354-50.544
			c-0.606-2.693-2.178-5.515-4.101-7.505c-6.54-6.768-10.73-14.712-12.918-23.745c-1.089-4.498-0.166-8.723,3.499-11.824
			c3.669-3.105,2.86-6.264,0.676-9.667c-5.161-8.042-9.15-16.571-10.486-26.137c-2.412-17.271,3.523-31.533,16.465-42.727
			c12.125-10.486,26.78-11.584,40.927-6.468c19.674,7.115,32.215,29.038,20.83,50.64c-7.26,13.773-28.301,24.093-46.43,9.032
			c-7.139-5.931-9.576-18.019-5.881-28.047c2.974-8.071,10.197-12.718,19.556-12.578c11.249,0.168,18.879,9.303,16.875,20.314
			c-0.882,4.847-3.892,8.636-8.553,9.238c-3.94,0.51-8.64-0.197-12.128-2.031c-4.256-2.237-4.402-8.563-1.342-12.311
			c2.765-3.386,5.779-3.637,9.555-0.975c-2.004,0.283-4.603-0.038-6.304,1.046c-2.834,1.808-4.302,4.705-1.829,8.064
			c2.699,3.665,8.675,5.26,11.416,2.22c2.197-2.436,4.479-6.766,3.723-9.39c-0.92-3.191-4.543-6.721-7.79-7.878
			c-5.773-2.06-11.728,1.474-14.486,6.967c-2.848,5.672-1.827,12.327,2.537,16.543c6.06,5.854,15.645,7.091,23.103,2.979
			c8.036-4.43,12.105-14.237,11.063-23.266c-1.57-13.609-10.415-19.36-22.225-22.129c-13.89-3.257-27.938,1.769-35.075,13.305
			c-11.575,18.713-12.882,34.215,2.432,51.511c9.604,10.847,20.329,20.17,34.12,25.389c13.962,5.283,27.94,10.525,41.86,15.917
			c4.539,1.758,7.651,0.677,9.925-4.247c-1.123-0.103-1.982-0.21-2.845-0.255c-8.792-0.464-13.358-6.746-10.579-15.074
			c1.247-3.736,1.993-7.018,0.451-11.002c-1.799-4.648,2.279-4.871,6.414-5.331c-0.729-2.259-0.999-4.362-2.021-5.993
			c-1.993-3.178-5.068-5.985-0.731-9.656c0.407-0.344-0.015-1.899-0.313-2.807c-1.734-5.271-3.739-10.465-5.225-15.804
			c-0.504-1.811,0.236-3.967,0.407-5.966c1.658,1.209,4.342,2.128,4.782,3.682c1.378,4.864,1.771,9.996,2.812,14.97
			c0.863,4.122,2.023,8.189,3.232,12.228c0.289,0.965,1.247,2.396,1.985,2.453c5.889,0.45,8.421,4,8.931,9.807
			c6.474-2.596,12.532-5.025,18.221-7.307c-0.836-3.175-1.67-6.402-2.538-9.622c-1.292-4.792,0.516-8.618,4.485-9.44
			c4.253-0.882,10.143,2.389,10.397,6.422c0.219,3.476-0.828,7.024-1.231,10.551c-0.119,1.043-0.06,2.137,0.106,3.177
			c0.386,2.414,0.995,4.795,1.322,7.215c0.896,6.631-0.882,12.246-6.484,16.323c-0.528,0.384-1.383,0.788-1.447,1.269
			c-0.939,7.006-2.415,14.031-2.361,21.041c0.027,3.646,2.8,7.27,4.905,12.26c1.625-3,2.636-4.314,3.093-5.799
			c3.024-9.819,6.059-19.639,8.783-29.543c0.674-2.449,0.143-5.215,0.288-7.829c0.377-6.809,0.668-13.628,1.288-20.416
			c0.482-5.281-1.714-8.899-5.234-12.742c-7.679-8.38-14.659-17.401-22.814-27.233c4.57-1.658,7.437-2.699,11.021-4
			c-2.874,6.27,1.075,9.976,4.486,13.038c6.693,6.01,12.682,13.336,22.619,14.613c1.638,0.21,3.033,2.315,4.896,3.836
			c0.147-1.023,0.26-1.812,0.444-3.092c1.876,0.88,3.602,1.689,5.442,2.553c10.678-6.82,12.707-6.676,17.18,1.249
			c6.476-4.107,13.147-7.96,19.286-12.528c1.35-1.004,0.809-4.55,1.048-6.273c1.597-1.218,3.004-2.29,5.196-3.962
			c0.79,2.065,1.643,4.292,2.715,7.095c-7.749,11.556-19.789,19.779-31.575,28.141c-10.651,7.556-13.72,23.446-5.288,34.786
			c1.974-2.165,3.771-4.305,5.744-6.267c4.67-4.644,8.976-9.829,14.27-13.62c5.32-3.809,9.033-7.938,10.196-14.5
			c0.679-3.833,2.271-7.504,4.169-11.208c0,2.232,0,4.466,0,6.948c2.372,0.236,4.287,0.427,7.77,0.774
			c-5.589,7.59-10.572,14.358-16.174,21.966c3.318,0,4.934,0,6.767,0c-0.293,1.903-0.591,3.842-0.994,6.462
			c6.404-4.461,12.94-3.679,18.625-0.347c6.224,3.648,6.21,10.92,7.195,16.915c5.573-1.055,10.955-2.073,16.241-3.073
			c1.055-9.921,2.63-12.55,8.412-13.043c7.49-0.639,10.212,4.285,11.127,11.002c0.418-0.133,0.835-0.265,1.252-0.396
			c0-5.484-0.531-11.035,0.148-16.433c0.69-5.482-0.41-10.418-2.135-15.427c-1.284-3.733-3-6.768-7.156-8.273
			c-2.262-0.82-3.979-3.143-6.592-5.332c4.006-1.79,6.944-3.578,10.135-4.406c3.766-0.979,4.549,2.37,5.522,5.005
			c2.642,7.133,3.881,15.313,8.27,21.121c4.318,5.717,3.068,12.236,5.857,17.502c3.166,5.981,0.461,11.27,0.488,18.001
			c8.189-10.527,9.707-21.134,5.012-33.151c1.383,0.54,1.785,0.569,1.949,0.781c1.172,1.515,2.297,3.066,3.438,4.606
			c0.795-1.845,1.818-3.629,2.326-5.55c0.561-2.128,0.65-4.38,0.945-6.578c0.439-0.007,0.881-0.015,1.322-0.021
			c0.211,2.562,0.42,5.123,0.697,8.499c2.045-3.125,3.693-5.646,5.346-8.166c0.451,0.235,0.902,0.471,1.352,0.705
			c-1.635,3.253-3.271,6.506-4.908,9.759c0.193,0.188,0.387,0.374,0.58,0.561c2.594-1.779,5.189-3.559,7.785-5.339
			c0.234,0.267,0.471,0.533,0.705,0.8c-2.168,1.766-4.336,3.531-6.502,5.297c0.291,0.475,0.582,0.949,0.873,1.424
			c2-0.523,4-1.047,6.697-1.753c-15.125,12.98-15.404,13.374-14.895,21.737c4.387-2.188,8.301-5.274,12.602-5.975
			c4.557-0.741,9.479,0.786,15.479,1.462c-0.746-3.062-1.227-6.115-2.244-8.977c-2.229-6.268-6.977-11.729-5.906-19.039
			c0.09-0.611-0.152-1.352-0.447-1.926c-4.738-9.251-4.914-19.239-4.789-29.281c0.096-7.627-1.74-14.678-6.102-21.249
			c1.457,1.041,2.914,2.083,5.068,3.624c-0.662-3.36-1.152-5.852-1.643-8.344c0.402-0.139,0.803-0.277,1.205-0.416
			c0.912,2.168,1.824,4.335,3.176,7.545c0.654-3.913,1.115-6.676,1.578-9.438c0.424,0.041,0.848,0.081,1.27,0.121
			c0,2.754,0,5.507,0,9.426c2.232-3,3.715-4.989,5.191-6.978c0.441,0.263,0.883,0.525,1.322,0.789
			c-0.885,1.61-1.945,3.152-2.598,4.853c-0.545,1.424-0.609,3.031-0.889,4.557c1.504,0.113,3.008,0.284,4.514,0.317
			c0.891,0.021,1.785-0.176,3.117-0.322c-0.564,0.851-0.73,1.406-1.092,1.597c-9.398,4.976-9.6,5.233-6.631,15.411
			c1.982,6.804,4.281,13.516,6.578,20.71c4.912-3.156,10.053-3.859,15.223-0.551c4.994,3.197,6.613,8,6.068,13.823
			c0.41,0.094,0.818,0.188,1.23,0.281c0.422-0.837,1.33-1.763,1.195-2.498c-1.307-7.175-2.668-14.345-4.252-21.463
			c-1.805-8.116-2.916-8.81-11.322-8.126c-0.627,0.051-1.26,0.007-2.18-0.841c0.838-0.4,1.719-0.731,2.506-1.217
			c1.277-0.787,2.494-1.676,3.736-2.522c-0.986-1.208-1.842-2.564-2.994-3.586c-1.305-1.154-2.877-2.008-4.332-2.991
			c0.203-0.397,0.406-0.794,0.607-1.19c2.236,0.937,4.473,1.873,7.676,3.215c-1.623-3.179-2.881-5.642-4.137-8.104
			c0.33-0.23,0.662-0.463,0.992-0.694c1.678,2.177,3.355,4.354,5.855,7.601c-0.336-3.564-0.563-5.965-0.787-8.366
			c0.344-0.091,0.688-0.183,1.033-0.273c0.832,2.344,1.666,4.688,2.813,7.924c1.064-1.946,1.84-3.364,2.922-5.346
			c0,2.842-0.553,5.304,0.102,7.39c2.313,7.396,5.016,14.673,7.613,21.979c1.76,4.948,3.59,9.872,5.596,15.38
			c9.418,2.179,11.52,4.742,12.662,16.483c0.613,6.336,4.766,8.774,10.379,5.776c1.127-0.602,1.82-2.633,2.088-4.117
			c1.063-5.89,5.57-9.828,11.518-9.089c3.881,0.483,8.135,1.044,11.371,2.988c6.711,4.033,7.441,12.997,2.48,19.188
			c-1.121,1.398-1.404,3.439-2.289,5.066c-0.787,1.447-1.873,2.73-3.146,4.536c5.148,1.561,10.168,3.657,15.775,1.951
			c3.344-1.018,4.688-2.45,2.324-6.1c-4.254-6.566-0.969-15.429,6.32-18.583c1.006-0.436,1.609-1.801,2.398-2.734
			c3.607,1.229,7.232,2.464,11.451,3.9c0.762-5.753,0.176-11.147,2.283-15.104c3.664-6.874-0.104-9.962-4.492-13.461
			c-0.23-0.183-0.324-0.534-0.689-1.171c1.119,0.099,2.094-0.038,2.873,0.29c3.592,1.515,4.068-0.69,3.938-3.324
			c-0.125-2.568-0.553-5.123-0.85-7.684c0.445-0.1,0.893-0.199,1.336-0.299c0.51,1.621,1.018,3.243,1.762,5.613
			c0.736-2.739,1.295-4.813,1.854-6.887c0.318,0.021,0.639,0.043,0.959,0.063c0.217,1.444,0.434,2.889,0.688,4.584
			c0.855-0.665,1.617-1.257,3.158-2.456c-0.979,3.095-1.645,5.2-2.309,7.307c0.244,0.173,0.49,0.347,0.736,0.52
			c1.512-1.265,3.021-2.529,4.639-3.882c-1.869,5.107-3.633,9.934-5.422,14.822c6.219,4.948,6.219,4.948,4.27,19.763
			c6.734-3.001,9.492-6.004,11.523-12.837c0.85-2.863,1.572-5.773,2.18-8.698c1.74-8.386,5.215-15.65,10.713-22.504
			c6.348-7.911,5.656-8.464,5.229-20.831c1.33,2.058,2.246,3.475,3.605,5.582c3.25-2.202,6.363-4.313,9.48-6.423
			c0.189,0.255,0.381,0.51,0.572,0.765c-0.736,0.954-1.473,1.909-2.537,3.293c1.545-0.316,2.604-0.533,3.662-0.751
			c0.355,0.347,0.715,0.693,1.072,1.04c-1.986,2.28-3.977,4.561-6.146,7.051c0.371,0.271,1.162,0.854,2.213,1.627
			c-4.576,0.799-9.494,7.918-12.398,17.307c4.422,5.296,10.191,5.595,16.588,5.397c13.156-0.408,22.264-8.314,31.479-16.041
			c1.367-1.146,1.309-3.993,1.932-6.133c-0.031-0.015,0.734,0.134,0.77,0.38c0.672,5.027,5.305,6.087,8.428,8.706
			c1.541,1.292,2.455,3.332,3.348,5.844c-7.498-4.157-12.039,0.854-16.979,4.273c-7.123,4.933-14.197,9.938-21.334,14.941
			c3.482,1.333,7.031,2.69,10.313,3.946c-0.426,1.597-0.695,2.613-0.918,3.434c-3.666-0.382-7.777-0.811-11.889-1.24
			c-0.104,0.482-0.211,0.965-0.316,1.446c3.439,0.924,6.883,1.847,10.322,2.77c-0.059,0.264-0.117,0.527-0.176,0.79
			c-4.76-0.611-9.514-1.282-14.285-1.795c-1.252-0.134-2.99-0.27-3.771,0.425c-8.73,7.742-17.816,15.512-19.764,27.807
			c-0.752,4.747,0.145,10.032,1.426,14.763c2.295,8.451,0.736,16.365-3.277,23.454c-4.883,8.622-5.652,17.186-2.979,26.384
			c1.043,3.593,2.777,6.32,7.182,6.364c4.283,0.043,7.281-1.213,8.895-5.581c2.498-6.754,5.553-13.216,11.85-17.494
			c8.941-6.077,22.969-3.361,28.281,5.577c5.418,9.117,2.516,21.004-6.66,25.421c-7.953,3.83-16.361,4.239-24.805,1.308
			c-1.568-0.545-3.1-1.204-4.666-1.755c-3.738-1.313-6.58,0.186-7.477,3.691c-4.045,15.79-2.809,31.117,5.742,45.259
			c2.982,4.937,7.4,6.216,12.605,3.675c5.135-2.507,9.85-5.99,14.449-9.443c3.977-2.983,7.363-6.745,11.307-9.781
			c15.801-12.168,33.785-1.938,38.844,11.139c4.152,10.73,3.34,21.33-2.443,31.275c-4.84,8.325-12.625,11.574-22.127,9.934
			c-12.828-2.216-22.045-9.855-29.389-19.984c-4.682-6.459-10.457-12.286-18.486-10.091c-9.445,2.582-18.387,7.625-24.125,16.175
			c-1.703,2.535-1.566,6.38-2.023,9.658c-1.486,10.658-2.859,21.332-4.434,33.192c2.762,0.363,6.617,0.572,10.326,1.424
			c5.916,1.357,12.248,2.183,17.475,4.975c7.645,4.084,6.912,12.825-0.695,17.053c-4.51,2.504-7.523,1.336-10.408-3.053
			c-3.436-5.23-6.998-10.494-11.273-15.018c-3.375-3.57-7.752-4.041-12.893-0.336c-5.236,3.775-11.896,5.941-18.234,7.76
			c-19.756,5.666-29.471,15.773-30.877,40.599c-0.645,11.371,0.668,22.956,2.143,34.309c1.039,7.986,5.623,14.302,12.977,18.565
			c6.889,3.995,13.871,8.104,19.904,13.23c11.266,9.572,14.102,25.801,7.705,38.726c-5.537,11.189-19.42,18.17-32.77,16.478
			c-12.131-1.54-21.125-9.96-23.342-23.282c-1.438-8.645-2.08-17.54-1.904-26.3c0.195-9.788,4.773-17.64,14.08-21.884
			c4.059-1.852,3.719-3.655,1.58-7.161c-3.352-5.489-5.928-11.478-8.551-17.378c-2.564-5.772-4.441-11.868-7.242-17.516
			c-2.902-5.854-7.109-6.547-12.176-2.354c-3.713,3.071-6.908,6.773-10.658,9.794c-6.453,5.199-10.002,4.052-12.188-3.853
			c-1.553-5.611-2.408-11.43-4.145-16.978C410.484,405.487,408.292,401.78,406.271,397.401z M99.008,344.484
			c-5.5,0.295-7.177,3.129-5.795,9.791c1.35,6.502,3.048,12.953,3.971,19.516c1.702,12.104,8.898,19.54,19.43,24.541
			c1.546,0.734,2.817,2.048,4.215,3.094c-0.09,0.43-0.18,0.859-0.27,1.289c-4.728-1.704-6.202,1.301-7.932,4.406
			c-1.603,2.878-3.708,5.482-5.669,8.152c-4.513,6.14-3.161,11.595,3.286,15.858c12.002,7.938,22.852,16.987,26.504,31.832
			c3.359-2.112,6.617-4.162,10.655-6.703c-4.35,5.239-8.251,9.238-11.295,13.81c-2.797,4.198-0.327,7.782,4.819,7.584
			c1.792-0.068,3.856-0.265,5.291-1.188c4.984-3.209,10.608-6.005,14.419-10.338c8.967-10.195,17.385-20.927,25.366-31.921
			c10.536-14.513,16.848-30.26,13.458-48.958c-1.919-10.589-1.764-21.536-3.26-32.223c-1.889-13.482-4.532-26.858-6.8-40.291
			c-0.751-4.453-3.145-4.539-6.375-2.553c-0.985,0.606-1.905,1.339-2.781,2.1c-14.449,12.54-28.83,25.237-46.425,33.313
			c-7.975,3.661-16.193,7.006-24.617,9.369c-3.324,0.932-7.778-0.656-11.118-2.309c-0.875-0.432,0.489-5.396,0.826-8.277
			c3.604-2.07,7.209-4.141,10.813-6.209c0.249,0.376,0.498,0.753,0.747,1.129c-0.564,0.696-1.025,1.526-1.713,2.063
			c-1.935,1.513-4.175,2.691-5.887,4.41c-1.29,1.293-1.95,3.215-2.891,4.857c1.728,0.641,3.621,2.093,5.154,1.78
			c6.23-1.269,12.351-3.079,19.047-4.83c-1.563-4.798-2.728-8.913-4.318-12.856c-0.382-0.947-2.583-2.162-3.261-1.834
			C110.243,335.967,102.424,336.943,99.008,344.484z M257.063,457.953c0.504-5.188,0.113-10.353,1.641-14.868
			c2.746-8.118,6.353-15.991,10.152-23.694c3.054-6.191,2.102-10.749-3.948-14.005c-1.605-0.862-3.111-1.95-4.786-2.634
			c-2.412-0.984-4.937-1.695-8.021-2.726c0.211-0.423,0.749-2.098,1.756-3.412c6.449-8.431,9.901-17.509,7.331-28.335
			c-1.146-4.825-1.665-9.811-2.285-14.745c-0.582-4.632-1.625-8.447-7.57-8.418c-2.569,0.013-5.121-1.162-7.717-1.565
			c-10.205-1.584-12.245,0.324-11.229,10.367c0.146,1.447,0.421,2.883,0.784,5.311c5.806-1.424,11.249-2.574,16.544-4.205
			c1.104-0.34,2.443-2.592,2.245-3.707c-0.185-1.039-2.172-2.015-3.548-2.526c-2.242-0.836-4.633-1.272-6.961-1.878
			c1.204-1.273,2.196-1.594,3.075-1.4c4.039,0.887,9.142,0.195,10.69,5.449c0.956,3.244-3.593,7.322-9.708,8.303
			c-7.028,1.125-14.164,2.035-21.265,2.135c-8.196,0.115-16.406-0.758-24.707-1.207c0.937,7.744,2.237,15.281,2.662,22.867
			c0.459,8.196,1.769,16.898-0.335,24.545c-2.499,9.081-7.898,17.468-12.677,25.788c-4.119,7.172-4.715,9.064,2.063,13.957
			c9.518,6.872,19.35,13.508,29.745,18.897c7.251,3.761,15.539,5.954,23.622,7.505c4.375,0.839,9.616-0.329,13.879-2.05
			c5.153-2.079,5.239-6.818,0.427-9.552c-3.199-1.817-7.069-2.451-10.639-3.614c0.005-0.193,0.011-0.388,0.017-0.581
			C251.297,457.953,254.296,457.953,257.063,457.953z M79.129,180.544c0.949,13.111,7.551,22.333,16.896,29.885
			c12.174,9.838,26.448,15.881,40.656,21.998c12.048,5.188,24.381,9.795,36.109,15.622c14.415,7.162,20.056,20.746,16.106,35.883
			c-4.745,18.183-27.188,26.771-42.34,16.13c-7.324-5.144-9.61-12.621-8.432-21.059c0.937-6.703,5.407-10.83,11.756-12.922
			c6.337-2.087,11.951-0.363,15.988,4.873c2.859,3.708,2.842,9.091-0.042,13.489c-2.541,3.875-6.82,4.995-11.423,3.117
			c-4.216-1.72-4.979-5.161-4.321-9.021c0.723-4.232,3.68-5.516,7.737-5.078c3.823,0.413,4.7,3.154,4.333,6.065
			c-0.65,5.171-4.656,3.713-8.331,2.874c3.125,4.286,7.89,3.957,10.069-0.137c2.835-5.327-0.517-11.704-6.779-12.794
			c-4.699-0.817-8.524,0.737-11.383,4.544c-3.147,4.192-4.008,8.797-1.671,13.581c5.253,10.754,20.395,12.377,28.58,2.92
			c5.935-6.857,7.184-14.944,3.768-23.282c-4.053-9.894-12.199-14.907-22.497-15.667c-21.892-1.615-30.833,18.652-27.247,35.323
			c2.945,13.685,12.08,22.799,25.644,25.837c14.866,3.329,28.836-0.881,39.34-11.574c11.179-11.382,10.493-26.396,7.53-40.875
			c-2.424-11.847-10.5-20.123-20.82-25.497c-12.352-6.432-25.176-12.01-38.011-17.447c-20.777-8.803-41.029-18.361-57.521-34.307
			C81.909,182.143,80.688,181.575,79.129,180.544z M144.968,176.053c-11.352-4.774-22.395-9.297-33.336-14.054
			c-12.156-5.284-24.623-9.955-35.146-18.448c-3.635-2.935-9.946-1.246-11.248,3.176c-1.004,3.413-1.732,8.2-0.096,10.83
			c3.516,5.652,7.94,11.232,13.222,15.209c21.537,16.212,45.888,27.299,70.856,37.082c1.38,0.54,2.995,0.48,5.336,0.823
			C148.73,199.41,141.2,189.641,144.968,176.053z M388.984,260.549c0.492-8.348-0.32-15.775-4.357-22.361
			c-1.734-2.825-1.898-4.608,0.088-7.432c4.508-6.406,5.863-13.878,6.156-21.709c-5.771,0-11.172,0-16.678,0
			c-1.182,7.147-1.617,14.415-10.777,16.839c0-5.806,0-11.025,0-16.368c-5.912,0-11.35,0-16.305,0c0,17.27,0,34.282,0,51.447
			c5.686,0,10.582,0,16.086,0c0-6.347,0-12.391,0-19.432c2.117,1.087,4.072,1.429,4.459,2.396c2.15,5.4,3.922,10.953,5.881,16.619
			C378.035,260.549,383.296,260.549,388.984,260.549z M410.074,326.284c-3.332-9.438-6.422-18.184-9.77-27.658
			c4.51-6.483,5.582-14.963,5.307-24.179c-3.043,0-5.521,0-8,0c-2.449,0-4.9,0-7.264,0c-1.869,12.916-3.244,15.225-9.871,16.286
			c0-5.322,0-10.584,0-15.786c-5.514,0-10.539,0-15.439,0c0,17.381,0,34.258,0,51.144c5.773,0,10.992,0,16.316,0
			c0-6.38,0-12.404,0-19.079c8.877,4.071,7.934,12.411,10.098,19.895c4.875,0,9.836,0.011,14.795-0.015
			C406.89,326.889,407.535,326.697,410.074,326.284z M66.271,344.124c-1.021-4.927,1.988-6.739,5.801-7.585
			c3.705-0.822,7.855,2.05,8.821,5.705c1.372,5.191-0.698,10.049-5.219,12.249c-5.183,2.522-11.938,1.11-14.897-3.112
			c-6.823-9.738-3.583-19.438,7.727-23.132c7.934-2.591,16.573,1.653,20.346,10.081c0.863,1.929,1.458,3.979,2.178,5.975
			c4.346-1.693,4.901-4.188,2.532-7.771c-1.175-1.776-2.119-3.79-2.756-5.825c-3.693-11.789-7.263-23.617-11.148-36.326
			c-1.186,0.658-3.769,1.415-5.372,3.103c-6.641,6.99-13.474,13.895-19.267,21.563c-3.786,5.011-6.944,11.001-8.57,17.04
			c-4.392,16.313,9.073,29.984,25.351,26.254c7.438-1.705,11.439-6.966,12.857-14.256c1.074-5.521-1.219-9.738-5.594-12.92
			c-4.546-3.307-11.428-1.936-14.502,2.785c-2.769,4.251-1.493,10.021,2.797,12.652c3.572,2.19,8.833,0.896,10.93-2.692
			c1.915-3.277,0.616-7.81-2.7-9.425c-3.619-1.762-6.297-0.223-8.541,4.877C66.935,343.62,66.623,343.789,66.271,344.124z
			 M226.191,329.268c7.17,3.373,14.441,3.357,21.642,1.805c9.416-2.03,14.144-8.476,15.669-17.807
			c1.396-8.541-2.89-13.499-9.825-17.105c-0.88-0.458-2.021-0.891-2.441-1.661c-0.903-1.655-1.415-3.524-2.086-5.305
			c2.041-0.019,4.42-0.705,6.036,0.115c2.003,1.017,3.373,3.28,5.355,5.36c1.592-5.782,2.993-10.868,4.487-16.295
			c-7.368-3.644-14.735-5.311-22.27-2.267c-2.861,1.156-5.756,3.645-7.338,6.299c-6.405,10.747-4.008,21.377,5.926,28.73
			c0.4,0.296,1.113,0.517,1.176,0.863c0.346,1.903,0.534,3.835,0.776,5.757c-1.793,0.042-4.081,0.793-5.267-0.035
			c-1.967-1.373-3.227-3.761-4.957-5.939C230.765,317.647,228.531,323.321,226.191,329.268z M291.011,307.909
			c7.173,3.944,11.529,3.603,15.731-0.879c6.039-6.44,7.145-19.384,1.979-26.506c-1.278-1.765-3.419-3.864-5.332-4.047
			c-8.95-0.856-17.96-1.098-26.476-1.534c-1.38,18.783-2.666,36.276-3.997,54.387c5.254-0.366,10.576-0.737,15.873-1.107
			C289.558,321.208,290.26,314.781,291.011,307.909z M419.392,308.368c-0.793,4.74-1.652,8.951-2.1,13.206
			c-0.113,1.085,0.816,3.003,1.729,3.36c7.525,2.944,15.275,4.613,23.367,2.57c4.051-1.022,6.563-3.672,7.678-7.693
			c2.523-9.102-0.936-18.324-8.869-23.431c-2.23-1.437-4.814-2.45-6.729-4.21c-1.178-1.081-1.391-3.21-2.037-4.868
			c1.83-0.107,4.039-0.911,5.404-0.166c2.293,1.254,4.049,3.491,6.441,5.693c1.229-5.694,2.322-10.773,3.709-17.194
			c-6.305-0.741-11.971-1.972-17.621-1.908c-5.289,0.06-9.961,2.365-12.482,7.675c-4.428,9.324-1.744,19.256,6.807,24.897
			c1.938,1.278,4.113,2.365,5.627,4.04c0.832,0.922,0.51,2.887,0.707,4.38c-1.383,0.083-3.16,0.753-4.066,0.137
			C424.41,313.126,422.226,310.866,419.392,308.368z M348.876,293.948c-3.516,0-6.602,0-10.018,0
			c0.191-1.948,0.348-3.501,0.541-5.439c4.688,0,8.951,0,13.348,0c0-4.794,0-9.146,0-13.524c-9.18,0-17.967-0.113-26.743,0.158
			c-0.98,0.03-2.643,2.191-2.717,3.439c-0.381,6.469-0.408,12.962-0.445,19.446c-0.055,9.58-0.014,19.161-0.014,28.568
			c9.465,0,19.641,0,29.967,0c0-4.931,0-9.179,0-13.882c-4.789,0-9.352,0-14.561,0c1.162-7.582,7.502-2.916,10.641-5.785
			C348.876,303.198,348.876,298.939,348.876,293.948z M425.718,260.146c2.629-9.587-0.658-19.916,5.217-28.763
			c5.338-8.039,10.039-16.503,15.027-24.789c-10.883-1.407-20.357-0.786-23.859,13.245c-1.541-4.035-2.611-6.088-3.094-8.27
			c-0.783-3.537-2.877-4.338-6.154-3.966c-4.111,0.468-8.26,0.63-12.924,0.963c3.459,8.598,8.08,16.639,9.768,25.254
			c1.666,8.503,0.365,17.587,0.365,26.325C415.976,260.146,420.769,260.146,425.718,260.146z M278.065,261.126
			c5.317,0,10.11,0,15.627,0c-0.72-10.55-1.425-20.901-2.147-31.49c2.572-0.153,4.969-0.297,7.845-0.469
			c-0.94-7.241-1.81-13.922-2.692-20.716c-11.565-0.569-22.574-1.111-34.001-1.675c1.409,7.537,2.709,14.494,4.011,21.455
			c2.771,0.248,5.216,0.467,8.194,0.733C275.953,239.662,276.988,250.186,278.065,261.126z M479.492,329.193
			c-1.885-18.366-3.773-36.751-5.662-55.146c-4.686,0-9.586,0-14.832,0c-0.107,17.916,1.492,35.229,4.68,52.395
			c0.195,1.055,1.785,2.561,2.809,2.628C470.906,329.359,475.359,329.193,479.492,329.193z M309.206,225.583
			c1.401,9.551,2.175,18.67,4.233,27.489c1.365,5.848,7.036,9.148,11.948,8.802c4.856-0.345,9.692-3.966,10.477-9.863
			c1.145-8.603,1.014-17.375,1.438-26.309c-4.75,0-8.328,0-12.496,0c0,6.688,0,13.124,0,19.56c-0.602,0.011-1.201,0.021-1.804,0.03
			c-0.492-6.479-0.984-12.958-1.497-19.709C317.685,225.583,314.111,225.583,309.206,225.583z M106.082,334.26
			c-5.743-18.486-11.025-36.705-0.808-55.561c-12.521,4.879-17.936,11.7-17.136,22.781c0.509,7.057,2.114,14.108,3.94,20.974
			c1.497,5.628,4.045,10.978,6.251,16.774C101.52,337.184,103.603,335.85,106.082,334.26z M121.436,255.421
			c6.621-3.881,13.749-8.059,20.925-12.265c-7.194-3.089-15.009-6.444-23.118-9.926C120.032,241.219,120.78,248.79,121.436,255.421z
			 M223.775,174.17c-3.387-3.025-5.727-5.694-8.623-7.44c-1.312-0.791-4.634-0.477-5.488,0.586
			c-3.763,4.687-6.959,9.829-10.938,15.651C208.903,183.502,215.06,177.457,223.775,174.17z M166.32,170.666
			c-2.602,2.795-4.676,5.024-6.617,7.11c3.876,4.604,7.214,8.271,13.457,6.375C170.991,179.874,168.872,175.696,166.32,170.666z"/>
		<path d="M408.341,455.69c-2.225,9.436-5.938,17.554-13.326,23.448c-1.91,1.522-4.84,2.243-7.361,2.412
			c-4.18,0.28-7.512-1.714-8.631-5.974c-1.068-4.052,1.393-6.684,4.652-8.406c2.615-1.384,5.553-2.146,8.238-3.413
			C397.216,461.258,402.443,458.6,408.341,455.69z"/>
		<path d="M119.683,433.518c19.279-0.102,36.728-4.836,50.132-19.809c0.414,0.19,0.828,0.381,1.242,0.571
			c0,2.296,0.117,4.598-0.019,6.886c-1.069,18.07-13.636,27.715-29.274,33.209c-3.121,1.097-4.805-0.13-6.813-2.839
			c-4.011-5.407-8.807-10.237-13.36-15.231c-0.602-0.66-1.681-0.886-2.539-1.313C119.262,434.501,119.472,434.01,119.683,433.518z"
			/>
		<path d="M144.01,402.163c0.332-9.62,13.374-14.771,20.591-10.823c2.494,1.364,5.836,1.225,8.809,1.656
			c3.485,0.505,6.988,0.883,10.657,2.47c-11.402-1.649-20.403,0.239-23.175,13.475c-2.414-3.863-2.407-3.893,2.379-11.55
			C156.229,395.08,150.168,397.085,144.01,402.163z"/>
		<path d="M126.391,424.915c-4.788,0.335-8.18-1.295-9.67-5.402c-1.404-3.869-0.837-7.893,2.819-10.144
			c4.113-2.533,8.397-1.413,13.454,1.688c-5.478,0.495-11.108-3.553-13.803,2.163C116.19,419.584,121.249,422.462,126.391,424.915z"
			/>
		<path d="M261.638,426.3c-2.228,8.208-4.082,16.07-6.641,23.695c-0.596,1.773-3.41,3.34-5.515,3.987
			c-15.249,4.686-28.964-2.278-34.257-17.177c-0.142-0.398,0.146-0.952,0.364-2.148C232.376,439.992,247.402,434.986,261.638,426.3z
			"/>
		<path d="M233.824,412.009c-7.239-0.873-13.171,0.478-17.769,5.098c2.453,2.434,4.69,4.652,6.928,6.874
			c-0.3,0.534-0.601,1.07-0.901,1.606c-8.49-10.513-16.088-5.569-23.582,1.197c-0.261-0.542-0.521-1.084-0.782-1.627
			c2.986-2.153,6.016-4.251,8.945-6.479c2.272-1.729,4.869-3.286,6.539-5.507C218.455,406.185,228.068,404.956,233.824,412.009z"/>
		<path d="M252.92,423.464c2.485-4.119,8.743-8.038,3.45-13.133c-4.473-4.307-6.935,2.809-10.649,3.864
			c-0.313-0.423-0.627-0.847-0.941-1.271c3.002-2.078,5.777-4.696,9.072-6.077c3.14-1.314,7.203,2.889,6.189,6.807
			c-0.995,3.847-3.472,7.309-5.299,10.938C254.134,424.218,253.527,423.841,252.92,423.464z"/>
		<path d="M292.023,298.574c0-4.134,0-7.67,0-11.158c3.746-0.67,5.023,1.022,5.101,4.012
			C297.212,294.872,296.798,298.008,292.023,298.574z"/>
	</g>
</g>
</svg>
